<svg width="28" height="28" viewBox="0 0 28 28" fill="none" xmlns="http://www.w3.org/2000/svg">
<path d="M15.1663 7.00004C15.1663 6.69062 15.0434 6.39388 14.8246 6.17508C14.6058 5.95629 14.3091 5.83337 13.9997 5.83337C13.6903 5.83337 13.3935 5.95629 13.1747 6.17508C12.9559 6.39388 12.833 6.69062 12.833 7.00004V12.8334H6.99967C6.69026 12.8334 6.39351 12.9563 6.17472 13.1751C5.95592 13.3939 5.83301 13.6906 5.83301 14C5.83301 14.3095 5.95592 14.6062 6.17472 14.825C6.39351 15.0438 6.69026 15.1667 6.99967 15.1667H12.833V21C12.833 21.3095 12.9559 21.6062 13.1747 21.825C13.3935 22.0438 13.6903 22.1667 13.9997 22.1667C14.3091 22.1667 14.6058 22.0438 14.8246 21.825C15.0434 21.6062 15.1663 21.3095 15.1663 21V15.1667H20.9997C21.3091 15.1667 21.6058 15.0438 21.8246 14.825C22.0434 14.6062 22.1663 14.3095 22.1663 14C22.1663 13.6906 22.0434 13.3939 21.8246 13.1751C21.6058 12.9563 21.3091 12.8334 20.9997 12.8334H15.1663V7.00004Z" fill="white"/>
</svg>
