<svg width="18" height="12" viewBox="0 0 22 12" fill="none" xmlns="http://www.w3.org/2000/svg">
    <path
        d="M16.6696 6.66671H4.6696C4.29626 6.66671 4.00293 6.37337 4.00293 6.00004C4.00293 5.62671 4.29626 5.33337 4.6696 5.33337H16.6696C17.0429 5.33337 17.3363 5.62671 17.3363 6.00004C17.3363 6.37337 17.0429 6.66671 16.6696 6.66671Z"
        fill="black" />
    <path
        d="M8.00326 11.3333C7.91582 11.3344 7.82913 11.3171 7.74876 11.2827C7.66839 11.2482 7.59612 11.1973 7.53659 11.1333L2.86992 6.46663C2.60326 6.19996 2.60326 5.78663 2.86992 5.51996L7.53659 0.866626C7.80326 0.599959 8.21659 0.599959 8.48326 0.866626C8.74992 1.13329 8.74992 1.54663 8.48326 1.81329L4.28326 6.01329L8.48326 10.2133C8.74992 10.48 8.74992 10.8933 8.48326 11.16C8.34992 11.2933 8.17659 11.36 8.01659 11.36L8.00326 11.3333Z"
        fill="black" />
</svg>
