<svg width="20" height="20" viewBox="0 0 20 20" fill="none" xmlns="http://www.w3.org/2000/svg">
<path d="M7.95881 12.625L15.0213 5.5625C15.188 5.39583 15.3824 5.3125 15.6046 5.3125C15.8269 5.3125 16.0213 5.39583 16.188 5.5625C16.3546 5.72917 16.438 5.92722 16.438 6.15667C16.438 6.38611 16.3546 6.58389 16.188 6.75L8.54214 14.4167C8.37548 14.5833 8.18103 14.6667 7.95881 14.6667C7.73659 14.6667 7.54214 14.5833 7.37548 14.4167L3.79214 10.8333C3.62548 10.6667 3.54548 10.4689 3.55214 10.24C3.55881 10.0111 3.64575 9.81306 3.81298 9.64583C3.9802 9.47861 4.17825 9.39528 4.40714 9.39583C4.63603 9.39639 4.83381 9.47972 5.00048 9.64583L7.95881 12.625Z" fill="#4361EE"/>
</svg>
