<svg width="16" height="21" viewBox="0 0 16 21" fill="none" xmlns="http://www.w3.org/2000/svg">
<g clip-path="url(#clip0_113_460)">
<path d="M15.3355 4.14538V18.7545C15.3355 19.9054 14.42 20.8384 13.2907 20.8384H2.04475C0.915464 20.8384 0 19.9054 0 18.7545V2.08384C0 0.932968 0.915464 0 2.04475 0H10.907L15.3355 4.14538Z" fill="#444CE7"/>
<g filter="url(#filter0_d_113_460)">
<path d="M15.3357 4.14538H11.4184C11.1361 4.14538 10.9072 3.91213 10.9072 3.6244V0L15.3357 4.14538Z" fill="#C7D7FE"/>
</g>
<path d="M7.83333 16.1428C7.96174 16.1429 8.0852 16.1923 8.17813 16.281C8.27106 16.3696 8.32634 16.4905 8.33251 16.6188C8.33868 16.7471 8.29527 16.8728 8.21127 16.9699C8.12728 17.067 8.00914 17.1281 7.88133 17.1405L7.83333 17.1428H4.5C4.37159 17.1428 4.24814 17.0933 4.1552 17.0047C4.06227 16.9161 4.007 16.7951 4.00083 16.6669C3.99465 16.5386 4.03806 16.4129 4.12206 16.3158C4.20605 16.2186 4.32419 16.1575 4.452 16.1452L4.5 16.1428H7.83333ZM9.83333 14.4762C9.96594 14.4762 10.0931 14.5288 10.1869 14.6226C10.2807 14.7164 10.3333 14.8435 10.3333 14.9762C10.3333 15.1088 10.2807 15.2359 10.1869 15.3297C10.0931 15.4235 9.96594 15.4762 9.83333 15.4762H4.5C4.36739 15.4762 4.24021 15.4235 4.14645 15.3297C4.05268 15.2359 4 15.1088 4 14.9762C4 14.8435 4.05268 14.7164 4.14645 14.6226C4.24021 14.5288 4.36739 14.4762 4.5 14.4762H9.83333ZM7.83333 12.8095C7.96174 12.8096 8.0852 12.859 8.17813 12.9476C8.27106 13.0362 8.32634 13.1572 8.33251 13.2855C8.33868 13.4137 8.29527 13.5394 8.21127 13.6366C8.12728 13.7337 8.00914 13.7948 7.88133 13.8072L7.83333 13.8095H4.5C4.37159 13.8094 4.24814 13.76 4.1552 13.6714C4.06227 13.5827 4.007 13.4618 4.00083 13.3335C3.99465 13.2053 4.03806 13.0795 4.12206 12.9824C4.20605 12.8853 4.32419 12.8242 4.452 12.8118L4.5 12.8095H7.83333ZM9.83333 11.1428C9.96174 11.1429 10.0852 11.1923 10.1781 11.281C10.2711 11.3696 10.3263 11.4905 10.3325 11.6188C10.3387 11.7471 10.2953 11.8728 10.2113 11.9699C10.1273 12.067 10.0091 12.1281 9.88133 12.1405L9.83333 12.1428H4.5C4.37159 12.1428 4.24814 12.0933 4.1552 12.0047C4.06227 11.9161 4.007 11.7951 4.00083 11.6669C3.99465 11.5386 4.03806 11.4129 4.12206 11.3158C4.20605 11.2186 4.32419 11.1575 4.452 11.1452L4.5 11.1428H9.83333Z" fill="white"/>
</g>
<defs>
<filter id="filter0_d_113_460" x="4.58131" y="-2.10864" width="12.8633" height="12.5798" filterUnits="userSpaceOnUse" color-interpolation-filters="sRGB">
<feFlood flood-opacity="0" result="BackgroundImageFix"/>
<feColorMatrix in="SourceAlpha" type="matrix" values="0 0 0 0 0 0 0 0 0 0 0 0 0 0 0 0 0 0 127 0" result="hardAlpha"/>
<feOffset dx="-2.10864" dy="2.10864"/>
<feGaussianBlur stdDeviation="2.10864"/>
<feComposite in2="hardAlpha" operator="out"/>
<feColorMatrix type="matrix" values="0 0 0 0 0 0 0 0 0 0 0 0 0 0 0 0 0 0 0.2 0"/>
<feBlend mode="normal" in2="BackgroundImageFix" result="effect1_dropShadow_113_460"/>
<feBlend mode="normal" in="SourceGraphic" in2="effect1_dropShadow_113_460" result="shape"/>
</filter>
<clipPath id="clip0_113_460">
<rect width="16" height="21" fill="white"/>
</clipPath>
</defs>
</svg>
