<svg width="18" height="18" viewBox="0 0 18 18" fill="none" xmlns="http://www.w3.org/2000/svg">
<path d="M13.6648 15.5625H4.33484C4.07475 15.5519 3.8193 15.4901 3.58312 15.3807C3.34693 15.2712 3.13465 15.1163 2.9584 14.9247C2.78216 14.7332 2.64542 14.5087 2.55601 14.2642C2.4666 14.0198 2.42627 13.7601 2.43734 13.5V11.25C2.43734 11.1008 2.4966 10.9577 2.60209 10.8523C2.70758 10.7468 2.85065 10.6875 2.99984 10.6875C3.14902 10.6875 3.29209 10.7468 3.39758 10.8523C3.50307 10.9577 3.56234 11.1008 3.56234 11.25V13.5C3.54297 13.7227 3.61007 13.9443 3.74971 14.1189C3.88935 14.2934 4.09082 14.4075 4.31234 14.4375H13.6648C13.8863 14.4075 14.0878 14.2934 14.2275 14.1189C14.3671 13.9443 14.4342 13.7227 14.4148 13.5V11.25C14.4148 11.1008 14.4741 10.9577 14.5796 10.8523C14.6851 10.7468 14.8282 10.6875 14.9773 10.6875C15.1265 10.6875 15.2696 10.7468 15.3751 10.8523C15.4806 10.9577 15.5398 11.1008 15.5398 11.25V13.5C15.5623 14.0215 15.3779 14.5308 15.0268 14.9171C14.6756 15.3033 14.1861 15.5353 13.6648 15.5625Z" fill="#040E3A"/>
<path d="M8.99964 11.8125C8.92573 11.8129 8.8525 11.7984 8.78425 11.7701C8.71599 11.7418 8.65407 11.7001 8.60214 11.6475L5.60214 8.64751C5.50278 8.54088 5.44869 8.39984 5.45126 8.25412C5.45383 8.10839 5.51286 7.96935 5.61592 7.86629C5.71898 7.76323 5.85802 7.7042 6.00375 7.70163C6.14947 7.69905 6.29051 7.75315 6.39714 7.85251L8.99964 10.455L11.6021 7.85251C11.7088 7.75315 11.8498 7.69905 11.9955 7.70163C12.1413 7.7042 12.2803 7.76323 12.3834 7.86629C12.4864 7.96935 12.5454 8.10839 12.548 8.25412C12.5506 8.39984 12.4965 8.54088 12.3971 8.64751L9.39714 11.6475C9.34521 11.7001 9.28329 11.7418 9.21504 11.7701C9.14678 11.7984 9.07355 11.8129 8.99964 11.8125Z" fill="#040E3A"/>
<path d="M9 11.8125C8.85142 11.8106 8.70947 11.7507 8.6044 11.6456C8.49933 11.5405 8.43944 11.3986 8.4375 11.25V3C8.4375 2.85082 8.49676 2.70774 8.60225 2.60225C8.70774 2.49676 8.85082 2.4375 9 2.4375C9.14918 2.4375 9.29226 2.49676 9.39775 2.60225C9.50324 2.70774 9.5625 2.85082 9.5625 3V11.25C9.56056 11.3986 9.50067 11.5405 9.3956 11.6456C9.29053 11.7507 9.14858 11.8106 9 11.8125Z" fill="#040E3A"/>
</svg>
