<svg width="16" height="16" viewBox="0 0 16 16" fill="none" xmlns="http://www.w3.org/2000/svg">
<g clip-path="url(#clip0_118_1175)">
<path d="M8.66654 2.66671L13.3332 7.33337M9.38254 2.59004C9.8792 2.05204 10.1272 1.78337 10.3912 1.62604C10.7029 1.4395 11.0582 1.33838 11.4213 1.33288C11.7845 1.32738 12.1427 1.41769 12.4599 1.59471C12.7285 1.74404 12.9845 2.00537 13.4965 2.52804C14.0085 3.05137 14.2645 3.31337 14.4099 3.58737C14.5833 3.91365 14.6715 4.27844 14.6662 4.64789C14.661 5.01735 14.5625 5.37949 14.3799 5.70071C14.2265 5.97004 13.9632 6.22404 13.4359 6.73137L7.1672 12.7694C6.16854 13.7314 5.6692 14.212 5.0452 14.456C4.4212 14.7 3.7352 14.6814 2.3632 14.646L2.17654 14.6407C1.7592 14.63 1.54987 14.6247 1.4292 14.4867C1.3072 14.3487 1.32387 14.136 1.3572 13.7107L1.3752 13.48C1.46854 12.2827 1.5152 11.684 1.74854 11.1454C1.98187 10.6067 2.38587 10.17 3.19254 9.29604L9.38254 2.59004Z" stroke="#040E3A" stroke-width="1.125" stroke-linejoin="round"/>
<path d="M9.33301 14.6667H14.6663" stroke="#040E3A" stroke-width="1.125" stroke-linecap="round" stroke-linejoin="round"/>
</g>
<defs>
<clipPath id="clip0_118_1175">
<rect width="16" height="16" fill="white"/>
</clipPath>
</defs>
</svg>
