<svg width="21" height="21" viewBox="0 0 21 21" fill="none" xmlns="http://www.w3.org/2000/svg">
<path d="M12.4131 2.40894V5.55544C12.4131 5.98156 12.5828 6.39106 12.8856 6.69294C13.1891 6.99513 13.6 7.16472 14.0283 7.16456H17.6377" stroke="white" stroke-width="1.5" stroke-linecap="round" stroke-linejoin="round"/>
<path d="M6.69112 6.69115H9.548M6.69112 10.5H14.3089M6.69112 14.3089H14.3089M17.7188 7.49703V14.994C17.7014 15.4844 17.5871 15.9665 17.3826 16.4125C17.1781 16.8585 16.8873 17.2597 16.527 17.5928C16.1664 17.9274 15.7435 18.1878 15.2822 18.3589C14.821 18.5301 14.3306 18.6087 13.839 18.5903H7.19775C6.70315 18.6129 6.20895 18.5376 5.74348 18.3689C5.27801 18.2001 4.85043 17.9411 4.48525 17.6068C4.12149 17.2727 3.82773 16.8698 3.62104 16.4212C3.41435 15.9727 3.29885 15.4876 3.28125 14.994V6.00428C3.29862 5.5139 3.41287 5.03182 3.61741 4.5858C3.82194 4.13978 4.11273 3.73865 4.473 3.40553C4.83357 3.07086 5.25655 2.81051 5.71776 2.63935C6.17898 2.4682 6.6694 2.38959 7.161 2.40803H12.1607C12.924 2.40533 13.6607 2.68773 14.2266 3.1999L16.8166 5.58165C17.093 5.81972 17.3162 6.1133 17.4716 6.4433C17.627 6.7733 17.7112 7.13233 17.7188 7.49703Z" stroke="white" stroke-width="1.5" stroke-linecap="round" stroke-linejoin="round"/>
</svg>
