<svg width="24" height="24" viewBox="0 0 24 24" fill="none" xmlns="http://www.w3.org/2000/svg">
<path d="M20.0004 10.8749C20.1477 10.8748 20.2917 10.8314 20.4145 10.7499C20.5372 10.6685 20.6333 10.5528 20.6907 10.4171C20.748 10.2814 20.7642 10.1319 20.7371 9.9871C20.7101 9.84232 20.641 9.7087 20.5384 9.60294L16.5384 5.47794C16.4685 5.40597 16.3849 5.34876 16.2925 5.30969C16.2001 5.27062 16.1008 5.25049 16.0004 5.25049C15.9001 5.25049 15.8008 5.27062 15.7084 5.30969C15.616 5.34876 15.5323 5.40597 15.4624 5.47794L11.4624 9.60294C11.3599 9.7087 11.2908 9.84232 11.2638 9.9871C11.2367 10.1319 11.2528 10.2814 11.3102 10.4171C11.3676 10.5528 11.4637 10.6685 11.5864 10.7499C11.7091 10.8314 11.8532 10.8748 12.0004 10.8749H15.2504V17.9999C15.2504 18.1989 15.3295 18.3896 15.4701 18.5303C15.6108 18.6709 15.8015 18.7499 16.0004 18.7499C16.1994 18.7499 16.3901 18.6709 16.5308 18.5303C16.6714 18.3896 16.7504 18.1989 16.7504 17.9999V10.8749H20.0004Z" fill="#040E3A"/>
<path opacity="0.5" d="M12.0004 13.125C12.1477 13.1251 12.2917 13.1686 12.4145 13.25C12.5372 13.3314 12.6333 13.4472 12.6907 13.5828C12.748 13.7185 12.7642 13.8681 12.7371 14.0128C12.7101 14.1576 12.641 14.2912 12.5384 14.397L8.53845 18.522C8.46854 18.594 8.38491 18.6512 8.2925 18.6903C8.20009 18.7293 8.10078 18.7495 8.00045 18.7495C7.90012 18.7495 7.8008 18.7293 7.70839 18.6903C7.61598 18.6512 7.53235 18.594 7.46245 18.522L3.46245 14.397C3.35993 14.2912 3.29082 14.1576 3.26375 14.0128C3.23668 13.8681 3.25284 13.7185 3.31022 13.5828C3.3676 13.4472 3.46365 13.3314 3.5864 13.25C3.70915 13.1686 3.85315 13.1251 4.00045 13.125H7.25045V6C7.25045 5.80109 7.32946 5.61032 7.47012 5.46967C7.61077 5.32902 7.80153 5.25 8.00045 5.25C8.19936 5.25 8.39012 5.32902 8.53078 5.46967C8.67143 5.61032 8.75045 5.80109 8.75045 6V13.125H12.0004Z" fill="#2244C4"/>
</svg>
