<svg width="16" height="16" viewBox="0 0 16 16" fill="none" xmlns="http://www.w3.org/2000/svg">
<path d="M14.5367 6.69437H13.9997V6.66671L7.99967 6.66671V9.33337H11.7673C11.2177 10.8857 9.74067 12 7.99967 12C5.79067 12 3.99967 10.209 3.99967 8.00004C3.99967 5.79104 5.79067 4.00004 7.99967 4.00004C9.01934 4.00004 9.94701 4.38471 10.6533 5.01304L12.539 3.12737C11.3483 2.01771 9.75567 1.33337 7.99967 1.33337C4.31801 1.33337 1.33301 4.31837 1.33301 8.00004C1.33301 11.6817 4.31801 14.6667 7.99967 14.6667C11.6813 14.6667 14.6663 11.6817 14.6663 8.00004C14.6663 7.55304 14.6203 7.11671 14.5367 6.69437Z" fill="#FFC107"/>
<path d="M2.10156 4.89704L4.2919 6.50337C4.88456 5.03604 6.3199 4.00004 7.99956 4.00004C9.01923 4.00004 9.9469 4.38471 10.6532 5.01304L12.5389 3.12737C11.3482 2.01771 9.75556 1.33337 7.99956 1.33337C5.4389 1.33337 3.21823 2.77904 2.10156 4.89704Z" fill="#FF3D00"/>
<path d="M8.00043 14.6667C9.72243 14.6667 11.2871 14.0077 12.4701 12.936L10.4068 11.19C9.71506 11.7163 8.86962 12.0009 8.00043 12C6.26643 12 4.7941 10.8943 4.23943 9.35132L2.06543 11.0263C3.16876 13.1853 5.40943 14.6667 8.00043 14.6667Z" fill="#4CAF50"/>
<path d="M14.537 6.69429H14V6.66663L8 6.66663V9.33329H11.7677C11.5047 10.0721 11.0311 10.7177 10.4053 11.1903L10.4063 11.1896L12.4697 12.9356C12.3237 13.0683 14.6667 11.3333 14.6667 7.99996C14.6667 7.55296 14.6207 7.11663 14.537 6.69429Z" fill="#1976D2"/>
</svg>
