<svg width="16" height="16" viewBox="0 0 16 16" fill="none" xmlns="http://www.w3.org/2000/svg">
<path d="M8.00101 1.33264C11.683 1.33264 14.6683 4.31798 14.6683 8.00064C14.6683 11.6826 11.683 14.668 8.00101 14.668C4.31834 14.668 1.33301 11.6826 1.33301 8.00064C1.33301 4.31798 4.31834 1.33264 8.00101 1.33264ZM8.00101 2.33264C7.25155 2.32451 6.50792 2.46511 5.81315 2.74629C5.11839 3.02747 4.48629 3.44365 3.95345 3.97075C3.4206 4.49785 2.99759 5.1254 2.70889 5.81707C2.42019 6.50874 2.27154 7.2508 2.27154 8.00031C2.27154 8.74981 2.42019 9.49188 2.70889 10.1835C2.99759 10.8752 3.4206 11.5028 3.95345 12.0299C4.48629 12.557 5.11839 12.9731 5.81315 13.2543C6.50792 13.5355 7.25155 13.6761 8.00101 13.668C9.49352 13.6518 10.9194 13.0475 11.9691 11.9864C13.0188 10.9253 13.6075 9.49291 13.6075 8.00031C13.6075 6.50771 13.0188 5.07535 11.9691 4.01422C10.9194 2.95308 9.49352 2.34883 8.00101 2.33264ZM7.99967 6.99997C8.13228 6.99997 8.25946 7.05265 8.35323 7.14642C8.447 7.24019 8.49967 7.36737 8.49967 7.49997V10.8333C8.49967 10.9659 8.447 11.0931 8.35323 11.1869C8.25946 11.2806 8.13228 11.3333 7.99967 11.3333C7.86707 11.3333 7.73989 11.2806 7.64612 11.1869C7.55235 11.0931 7.49967 10.9659 7.49967 10.8333V7.49997C7.49967 7.36737 7.55235 7.24019 7.64612 7.14642C7.73989 7.05265 7.86707 6.99997 7.99967 6.99997ZM7.99967 5.99997C8.17649 5.99997 8.34605 5.92974 8.47108 5.80471C8.5961 5.67969 8.66634 5.51012 8.66634 5.33331C8.66634 5.1565 8.5961 4.98693 8.47108 4.8619C8.34605 4.73688 8.17649 4.66664 7.99967 4.66664C7.82286 4.66664 7.65329 4.73688 7.52827 4.8619C7.40325 4.98693 7.33301 5.1565 7.33301 5.33331C7.33301 5.51012 7.40325 5.67969 7.52827 5.80471C7.65329 5.92974 7.82286 5.99997 7.99967 5.99997Z" fill="#040E3A"/>
</svg>
