<svg width="18" height="18" viewBox="0 0 18 18" fill="none" xmlns="http://www.w3.org/2000/svg">
<path d="M7.875 12C7.875 11.7016 7.99353 11.4155 8.2045 11.2045C8.41548 10.9935 8.70163 10.875 9 10.875C9.29837 10.875 9.58452 10.9935 9.7955 11.2045C10.0065 11.4155 10.125 11.7016 10.125 12C10.125 12.2984 10.0065 12.5845 9.7955 12.7955C9.58452 13.0065 9.29837 13.125 9 13.125C8.70163 13.125 8.41548 13.0065 8.2045 12.7955C7.99353 12.5845 7.875 12.2984 7.875 12Z" fill="#040E3A"/>
<path fill-rule="evenodd" clip-rule="evenodd" d="M5.71627 7.94774L5.47927 5.81849C5.44921 5.54557 5.44921 5.27017 5.47927 4.99724L5.49652 4.84349C5.59271 3.98166 6.00321 3.18551 6.64951 2.60732C7.29582 2.02913 8.13258 1.70947 8.99977 1.70947C9.86696 1.70947 10.7037 2.02913 11.35 2.60732C11.9963 3.18551 12.4068 3.98166 12.503 4.84349L12.5203 4.99724C12.5503 5.27074 12.5503 5.54449 12.5203 5.81849L12.2833 7.94849L12.7985 7.989C13.1931 8.02038 13.5658 8.18313 13.857 8.45124C14.1482 8.71934 14.3412 9.07733 14.405 9.46799C14.6795 11.1448 14.6795 12.8552 14.405 14.532C14.3412 14.9227 14.1482 15.2806 13.857 15.5488C13.5658 15.8169 13.1931 15.9796 12.7985 16.011L11.6765 16.101C9.89452 16.2435 8.10502 16.2435 6.32302 16.101L5.20102 16.011C4.80643 15.9796 4.43374 15.8169 4.14252 15.5488C3.8513 15.2806 3.65835 14.9227 3.59452 14.532C3.32006 12.8552 3.32006 11.1448 3.59452 9.46799C3.65835 9.07733 3.8513 8.71934 4.14252 8.45124C4.43374 8.18313 4.80643 8.02038 5.20102 7.989L5.71627 7.94774ZM8.71927 2.84999C9.03358 2.81305 9.35209 2.83864 9.65647 2.92527C9.96084 3.01191 10.2451 3.15789 10.4928 3.35482C10.7406 3.55174 10.9469 3.79571 11.1 4.0727C11.2531 4.34968 11.3498 4.65421 11.3848 4.96874L11.402 5.12249C11.423 5.31299 11.423 5.50399 11.402 5.69549L11.1613 7.86299C9.72175 7.77061 8.27779 7.77061 6.83827 7.86299L6.59827 5.69549C6.57736 5.50507 6.57736 5.31292 6.59827 5.12249L6.61477 4.96874C6.6746 4.42976 6.91519 3.92693 7.29735 3.54218C7.67951 3.15744 8.18071 2.91345 8.71927 2.84999ZM11.5873 9.02174C9.86501 8.8844 8.13454 8.8844 6.41227 9.02174L5.29102 9.11174C5.14699 9.12296 5.0109 9.18221 4.90456 9.27999C4.79821 9.37777 4.72777 9.50841 4.70452 9.65099C4.44987 11.2071 4.44987 12.7943 4.70452 14.3505C4.72762 14.4932 4.79799 14.624 4.90435 14.722C5.01071 14.8199 5.14689 14.8792 5.29102 14.8905L6.41302 14.9805C8.13502 15.1177 9.86452 15.1177 11.5873 14.9805L12.7093 14.8905C12.8533 14.8791 12.9893 14.8197 13.0955 14.7217C13.2017 14.6238 13.272 14.4931 13.295 14.3505C13.5497 12.7943 13.5497 11.2071 13.295 9.65099C13.272 9.50839 13.2017 9.37766 13.0955 9.27975C12.9893 9.18184 12.8533 9.12241 12.7093 9.11099L11.5873 9.02174Z" fill="#040E3A"/>
</svg>
