<svg width="109" height="24" viewBox="0 0 109 24" fill="none" xmlns="http://www.w3.org/2000/svg">
<path d="M12.8639 23.744C10.7519 23.744 8.90655 23.5734 7.32788 23.232C5.74922 22.8694 4.42655 22.3574 3.35988 21.696C2.29322 21.0347 1.48255 20.256 0.927883 19.36C0.373216 18.464 0.0638829 17.4827 -0.000117183 16.416H5.34388C5.47188 16.928 5.71722 17.408 6.07988 17.856C6.44255 18.2827 6.92255 18.6667 7.51988 19.008C8.13855 19.328 8.88522 19.584 9.75988 19.776C10.6559 19.9467 11.6906 20.032 12.8639 20.032C14.3359 20.032 15.5839 19.904 16.6079 19.648C17.6532 19.392 18.4426 19.0187 18.9759 18.528C19.5306 18.0374 19.8079 17.44 19.8079 16.736C19.8079 16.3094 19.7012 15.936 19.4879 15.616C19.2746 15.296 18.9332 15.0294 18.4639 14.816C18.0159 14.5814 17.4292 14.4107 16.7039 14.304L8.99188 13.344C7.71188 13.1734 6.54922 12.9387 5.50388 12.64C4.45855 12.32 3.56255 11.904 2.81588 11.392C2.09055 10.88 1.52522 10.2507 1.11988 9.50402C0.735883 8.73602 0.543883 7.84002 0.543883 6.81602C0.543883 5.77069 0.81055 4.83202 1.34388 4.00002C1.87722 3.14669 2.65588 2.43202 3.67988 1.85602C4.70388 1.25869 5.95188 0.80002 7.42388 0.480019C8.89588 0.160019 10.5706 1.90735e-05 12.4479 1.90735e-05C14.3892 1.90735e-05 16.0746 0.160019 17.5039 0.480019C18.9332 0.80002 20.1279 1.25869 21.0879 1.85602C22.0479 2.45335 22.7732 3.15735 23.2639 3.96802C23.7759 4.77869 24.0639 5.66402 24.1279 6.62402H18.7839C18.6986 6.04802 18.4106 5.54669 17.9199 5.12002C17.4292 4.67202 16.7252 4.33069 15.8079 4.09602C14.8906 3.84002 13.7279 3.71202 12.3199 3.71202C10.9332 3.71202 9.74922 3.82935 8.76788 4.06402C7.80788 4.29869 7.08255 4.62935 6.59188 5.05602C6.12255 5.48269 5.88788 5.99469 5.88788 6.59202C5.88788 7.04002 6.02655 7.44535 6.30388 7.80802C6.58122 8.14935 6.97588 8.42669 7.48788 8.64002C8.02122 8.85335 8.65055 9.01335 9.37588 9.12002L17.4079 10.112C19.0506 10.304 20.4479 10.6667 21.5999 11.2C22.7519 11.7334 23.6372 12.4374 24.2559 13.312C24.8746 14.1867 25.1839 15.2534 25.1839 16.512C25.1839 17.7067 24.9172 18.752 24.3839 19.648C23.8506 20.544 23.0612 21.3014 22.0159 21.92C20.9706 22.5174 19.6799 22.976 18.1439 23.296C16.6292 23.5947 14.8692 23.744 12.8639 23.744ZM34.0621 23.744C31.9288 23.744 30.2541 23.3067 29.0381 22.432C27.8435 21.5574 27.2461 20.352 27.2461 18.816C27.2461 17.856 27.4915 17.0347 27.9821 16.352C28.4728 15.6694 29.2088 15.1147 30.1901 14.688C31.1715 14.24 32.3875 13.952 33.8381 13.824L40.4941 13.088C41.0275 13.0454 41.4221 12.9174 41.6781 12.704C41.9341 12.4907 42.0621 12.2027 42.0621 11.84V11.808C42.0621 11.3387 41.8808 10.944 41.5181 10.624C41.1555 10.304 40.6435 10.0587 39.9821 9.88802C39.3421 9.71735 38.5635 9.63202 37.6461 9.63202C36.2808 9.63202 35.2035 9.80269 34.4141 10.144C33.6248 10.464 33.1448 10.944 32.9741 11.584H28.0461C28.2381 10.4747 28.7288 9.53602 29.5181 8.76802C30.3288 8.00002 31.4275 7.41335 32.8141 7.00802C34.2008 6.60269 35.8435 6.40002 37.7421 6.40002C39.8115 6.40002 41.5288 6.62402 42.8941 7.07202C44.2595 7.52002 45.2835 8.20269 45.9661 9.12002C46.6488 10.016 46.9901 11.1467 46.9901 12.512V23.296H42.2861V18.336L42.7981 18.944C42.3075 19.9894 41.6568 20.8747 40.8461 21.6C40.0355 22.304 39.0648 22.8374 37.9341 23.2C36.8035 23.5627 35.5128 23.744 34.0621 23.744ZM35.7901 20.384C36.6648 20.384 37.4755 20.2667 38.2221 20.032C38.9901 19.7974 39.6621 19.4774 40.2381 19.072C40.8141 18.6454 41.2621 18.1654 41.5821 17.632C41.9021 17.0774 42.0621 16.4907 42.0621 15.872V13.856L42.8621 15.008C42.5208 15.2 42.0941 15.3707 41.5821 15.52C41.0701 15.648 40.3875 15.7654 39.5341 15.872L34.5421 16.512C33.7955 16.5974 33.2408 16.7894 32.8781 17.088C32.5155 17.3654 32.3341 17.7707 32.3341 18.304C32.3341 18.9654 32.6221 19.4774 33.1981 19.84C33.7955 20.2027 34.6595 20.384 35.7901 20.384ZM52.2579 23.296V6.01602C52.2579 4.86402 52.4819 3.88269 52.9299 3.07202C53.3779 2.24002 54.0179 1.60002 54.8499 1.15202C55.6819 0.682686 56.6739 0.448019 57.8259 0.448019H62.4979V3.77602H59.5219C58.7966 3.77602 58.2206 4.00002 57.7939 4.44802C57.3886 4.87469 57.1859 5.46135 57.1859 6.20802V23.296H52.2579ZM48.5139 10.144V6.84802H52.7699V10.144H48.5139ZM56.6739 10.144V6.84802H62.4979V10.144H56.6739ZM74.2801 23.744C72.0401 23.744 70.1095 23.3814 68.4881 22.656C66.8881 21.9307 65.6508 20.9174 64.7761 19.616C63.9228 18.2934 63.4961 16.7787 63.4961 15.072C63.4961 14.0267 63.6455 13.0667 63.9441 12.192C64.2641 11.296 64.7228 10.496 65.3201 9.79202C65.9388 9.06669 66.6855 8.45869 67.5601 7.96802C68.4348 7.45602 69.4375 7.07202 70.5681 6.81602C71.6988 6.53869 72.9361 6.40002 74.2801 6.40002C75.9015 6.40002 77.3628 6.59202 78.6641 6.97602C79.9655 7.36002 81.0641 7.95735 81.9601 8.76802C82.8775 9.55735 83.5708 10.5707 84.0401 11.808C84.5095 13.024 84.7335 14.4747 84.7121 16.16H66.6321V13.44H79.6881C79.5815 12.8427 79.3788 12.32 79.0801 11.872C78.7815 11.4027 78.3975 11.008 77.9281 10.688C77.4588 10.368 76.9148 10.1334 76.2961 9.98402C75.6775 9.83469 74.9948 9.76002 74.2481 9.76002C73.4801 9.76002 72.7761 9.84535 72.1361 10.016C71.5175 10.1867 70.9628 10.432 70.4721 10.752C70.0028 11.0507 69.6081 11.424 69.2881 11.872C68.9895 12.2987 68.7548 12.7787 68.5841 13.312C68.4348 13.8454 68.3601 14.432 68.3601 15.072C68.3601 16.096 68.5735 17.0134 69.0001 17.824C69.4481 18.6134 70.1201 19.2427 71.0161 19.712C71.9121 20.16 73.0215 20.384 74.3441 20.384C75.5601 20.384 76.5841 20.2347 77.4161 19.936C78.2481 19.616 78.8775 19.1467 79.3041 18.528H84.4241C84.1468 19.488 83.6135 20.3627 82.8241 21.152C82.0348 21.9414 80.9361 22.5707 79.5281 23.04C78.1415 23.5094 76.3921 23.744 74.2801 23.744ZM97.5331 23.744C95.2718 23.744 93.3198 23.3814 91.6771 22.656C90.0345 21.9307 88.7758 20.9174 87.9011 19.616C87.0478 18.3147 86.6211 16.8 86.6211 15.072C86.6211 14.0267 86.7811 13.0667 87.1011 12.192C87.4211 11.296 87.8798 10.496 88.4771 9.79202C89.0958 9.06669 89.8425 8.45869 90.7171 7.96802C91.6131 7.45602 92.6265 7.07202 93.7571 6.81602C94.9091 6.53869 96.1678 6.40002 97.5331 6.40002C99.8158 6.40002 101.768 6.76269 103.389 7.48802C105.01 8.21335 106.248 9.22669 107.101 10.528C107.976 11.808 108.413 13.3227 108.413 15.072C108.413 16.096 108.253 17.056 107.933 17.952C107.634 18.848 107.176 19.6587 106.557 20.384C105.96 21.088 105.213 21.696 104.317 22.208C103.442 22.6987 102.429 23.072 101.277 23.328C100.146 23.6054 98.8985 23.744 97.5331 23.744ZM97.5331 20.192C98.3225 20.192 99.0265 20.1067 99.6451 19.936C100.264 19.7654 100.797 19.52 101.245 19.2C101.714 18.88 102.098 18.5067 102.397 18.08C102.717 17.6534 102.952 17.184 103.101 16.672C103.25 16.16 103.325 15.6267 103.325 15.072C103.325 14.112 103.112 13.248 102.685 12.48C102.28 11.712 101.64 11.104 100.765 10.656C99.9118 10.1867 98.8345 9.95202 97.5331 9.95202C96.7438 9.95202 96.0398 10.0374 95.4211 10.208C94.8025 10.3787 94.2585 10.624 93.7891 10.944C93.3198 11.2427 92.9251 11.6054 92.6051 12.032C92.3065 12.4587 92.0825 12.928 91.9331 13.44C91.7838 13.952 91.7091 14.496 91.7091 15.072C91.7091 15.9894 91.9225 16.8427 92.3491 17.632C92.7758 18.4214 93.4158 19.0507 94.2691 19.52C95.1438 19.968 96.2318 20.192 97.5331 20.192Z" fill="white"/>
</svg>
