<svg width="375" height="533" viewBox="0 0 375 533" fill="none" xmlns="http://www.w3.org/2000/svg">
<g clip-path="url(#clip0_118_1072)">
<g opacity="0.1">
<path d="M330.9 22.3945C330.9 23.1148 330.702 23.8188 330.332 24.4177C329.961 25.0165 329.435 25.4833 328.819 25.7589C328.203 26.0345 327.525 26.1066 326.871 25.9661C326.217 25.8256 325.617 25.4788 325.145 24.9695C324.674 24.4602 324.353 23.8114 324.223 23.105C324.093 22.3986 324.16 21.6664 324.415 21.0009C324.67 20.3355 325.102 19.7668 325.656 19.3667C326.211 18.9665 326.862 18.7529 327.529 18.7529C328.423 18.7529 329.28 19.1366 329.912 19.8195C330.545 20.5025 330.9 21.4287 330.9 22.3945Z" fill="url(#paint0_radial_118_1072)" style="mix-blend-mode:color-dodge"/>
<path d="M323.37 1.82506C323.372 2.63268 323.153 3.42289 322.739 4.09565C322.325 4.7684 321.736 5.29344 321.046 5.60427C320.356 5.91511 319.597 5.99776 318.863 5.84177C318.13 5.68578 317.455 5.29816 316.926 4.72799C316.397 4.15782 316.036 3.43075 315.889 2.63883C315.742 1.84691 315.816 1.02576 316.102 0.279375C316.387 -0.467018 316.871 -1.1051 317.493 -1.55406C318.114 -2.00302 318.845 -2.24267 319.593 -2.24268C320.592 -2.24268 321.551 -1.81453 322.259 -1.05205C322.967 -0.289568 323.367 0.745047 323.37 1.82506Z" fill="url(#paint1_radial_118_1072)" style="mix-blend-mode:color-dodge"/>
<path d="M256.732 66.0951C256.744 66.9844 256.511 67.8574 256.063 68.6036C255.616 69.3499 254.973 69.9359 254.217 70.2874C253.461 70.6389 252.625 70.7401 251.815 70.5782C251.006 70.4163 250.259 69.9986 249.67 69.3779C249.08 68.7573 248.674 67.9616 248.504 67.0916C248.333 66.2217 248.405 65.3165 248.71 64.4908C249.016 63.665 249.542 62.9558 250.221 62.4529C250.9 61.9501 251.701 61.6761 252.524 61.6658C253.626 61.652 254.687 62.1106 255.476 62.9409C256.264 63.7712 256.716 64.9055 256.732 66.0951Z" fill="url(#paint2_radial_118_1072)" style="mix-blend-mode:color-dodge"/>
<path d="M301.747 110.863C303.391 110.863 304.723 109.423 304.723 107.647C304.723 105.871 303.391 104.432 301.747 104.432C300.103 104.432 298.771 105.871 298.771 107.647C298.771 109.423 300.103 110.863 301.747 110.863Z" fill="url(#paint3_radial_118_1072)" style="mix-blend-mode:color-dodge"/>
<path d="M173.715 110.977C175.907 110.977 177.684 109.057 177.684 106.689C177.684 104.322 175.907 102.402 173.715 102.402C171.524 102.402 169.747 104.322 169.747 106.689C169.747 109.057 171.524 110.977 173.715 110.977Z" fill="url(#paint4_radial_118_1072)" style="mix-blend-mode:color-dodge"/>
<path d="M174.041 110.863C176.338 110.863 178.2 108.851 178.2 106.369C178.2 103.887 176.338 101.875 174.041 101.875C171.743 101.875 169.881 103.887 169.881 106.369C169.881 108.851 171.743 110.863 174.041 110.863Z" fill="url(#paint5_radial_118_1072)" style="mix-blend-mode:color-dodge"/>
<path d="M146.142 149.863C146.142 150.543 145.955 151.207 145.606 151.773C145.256 152.338 144.758 152.778 144.177 153.038C143.595 153.297 142.955 153.364 142.338 153.231C141.721 153.097 141.154 152.769 140.71 152.287C140.266 151.805 139.964 151.192 139.843 150.525C139.722 149.858 139.786 149.167 140.029 148.539C140.271 147.912 140.681 147.376 141.205 147C141.729 146.625 142.345 146.425 142.975 146.428C143.392 146.428 143.805 146.517 144.19 146.69C144.575 146.862 144.924 147.116 145.219 147.435C145.513 147.754 145.746 148.133 145.905 148.549C146.063 148.966 146.144 149.412 146.142 149.863Z" fill="url(#paint6_radial_118_1072)" style="mix-blend-mode:color-dodge"/>
<path d="M243.249 222.695C245.44 222.695 247.217 220.775 247.217 218.408C247.217 216.04 245.44 214.12 243.249 214.12C241.057 214.12 239.28 216.04 239.28 218.408C239.28 220.775 241.057 222.695 243.249 222.695Z" fill="url(#paint7_radial_118_1072)" style="mix-blend-mode:color-dodge"/>
<path d="M293.225 445.929C293.225 447.206 292.874 448.454 292.217 449.516C291.561 450.578 290.627 451.405 289.535 451.894C288.443 452.383 287.241 452.51 286.082 452.261C284.923 452.012 283.858 451.397 283.022 450.494C282.186 449.591 281.617 448.441 281.386 447.188C281.156 445.936 281.274 444.638 281.726 443.458C282.179 442.278 282.945 441.27 283.928 440.56C284.91 439.851 286.066 439.472 287.248 439.472C288.833 439.472 290.353 440.152 291.474 441.363C292.595 442.574 293.225 444.216 293.225 445.929Z" fill="url(#paint8_radial_118_1072)" style="mix-blend-mode:color-dodge"/>
<path d="M361.441 491.775C361.444 492.964 361.12 494.126 360.511 495.115C359.901 496.104 359.034 496.876 358.019 497.332C357.003 497.789 355.885 497.91 354.806 497.679C353.727 497.449 352.736 496.878 351.957 496.039C351.179 495.2 350.648 494.13 350.433 492.965C350.217 491.799 350.327 490.591 350.747 489.493C351.167 488.395 351.88 487.457 352.794 486.796C353.708 486.136 354.784 485.784 355.883 485.784C357.355 485.784 358.767 486.414 359.809 487.538C360.851 488.661 361.438 490.185 361.441 491.775Z" fill="url(#paint9_radial_118_1072)" style="mix-blend-mode:color-dodge"/>
<path d="M367.787 432.278C367.787 433.21 367.531 434.121 367.052 434.896C366.573 435.672 365.891 436.276 365.094 436.632C364.297 436.989 363.42 437.083 362.573 436.901C361.727 436.719 360.95 436.27 360.339 435.611C359.729 434.952 359.314 434.112 359.145 433.197C358.977 432.283 359.063 431.335 359.394 430.474C359.724 429.613 360.283 428.877 361.001 428.359C361.718 427.841 362.561 427.564 363.424 427.564C364.581 427.564 365.691 428.061 366.509 428.945C367.328 429.829 367.787 431.028 367.787 432.278Z" fill="url(#paint10_radial_118_1072)" style="mix-blend-mode:color-dodge"/>
<path d="M239.28 424.933C239.28 425.61 239.095 426.272 238.747 426.834C238.399 427.397 237.904 427.836 237.325 428.095C236.746 428.354 236.109 428.422 235.495 428.29C234.88 428.157 234.316 427.832 233.873 427.353C233.43 426.874 233.128 426.265 233.006 425.601C232.884 424.937 232.947 424.249 233.186 423.624C233.426 422.998 233.832 422.464 234.353 422.088C234.874 421.712 235.486 421.511 236.113 421.511C236.529 421.509 236.942 421.597 237.327 421.768C237.712 421.94 238.062 422.192 238.356 422.51C238.651 422.828 238.884 423.206 239.043 423.622C239.201 424.038 239.282 424.483 239.28 424.933Z" fill="url(#paint11_radial_118_1072)" style="mix-blend-mode:color-dodge"/>
<path d="M171.076 365.8C171.078 366.48 170.894 367.145 170.546 367.712C170.198 368.278 169.702 368.721 169.121 368.983C168.541 369.245 167.901 369.315 167.283 369.183C166.666 369.052 166.098 368.726 165.652 368.246C165.206 367.766 164.902 367.154 164.779 366.488C164.655 365.821 164.717 365.13 164.958 364.501C165.198 363.873 165.605 363.336 166.129 362.958C166.652 362.58 167.267 362.378 167.896 362.378C168.737 362.378 169.544 362.738 170.14 363.379C170.736 364.021 171.073 364.891 171.076 365.8Z" fill="url(#paint12_radial_118_1072)" style="mix-blend-mode:color-dodge"/>
<path d="M167.108 322.968C167.986 322.968 168.698 322.199 168.698 321.25C168.698 320.302 167.986 319.533 167.108 319.533C166.23 319.533 165.519 320.302 165.519 321.25C165.519 322.199 166.23 322.968 167.108 322.968Z" fill="url(#paint13_radial_118_1072)" style="mix-blend-mode:color-dodge"/>
<path d="M189.317 295.966C189.317 296.39 189.201 296.804 188.983 297.157C188.765 297.509 188.455 297.784 188.092 297.946C187.73 298.109 187.331 298.151 186.946 298.068C186.561 297.986 186.207 297.782 185.93 297.482C185.652 297.182 185.463 296.8 185.387 296.384C185.31 295.968 185.349 295.537 185.5 295.146C185.65 294.754 185.904 294.419 186.23 294.184C186.557 293.948 186.94 293.822 187.333 293.822C187.859 293.822 188.364 294.048 188.736 294.45C189.108 294.852 189.317 295.397 189.317 295.966Z" fill="url(#paint14_radial_118_1072)" style="mix-blend-mode:color-dodge"/>
<path d="M169.749 171.569C169.749 171.965 169.641 172.352 169.437 172.681C169.234 173.01 168.944 173.267 168.606 173.418C168.267 173.57 167.895 173.609 167.535 173.532C167.176 173.455 166.846 173.264 166.587 172.984C166.327 172.704 166.151 172.348 166.08 171.96C166.008 171.571 166.045 171.169 166.185 170.803C166.325 170.437 166.563 170.125 166.867 169.905C167.172 169.685 167.53 169.568 167.897 169.568C168.388 169.568 168.859 169.778 169.207 170.154C169.554 170.529 169.749 171.038 169.749 171.569Z" fill="url(#paint15_radial_118_1072)" style="mix-blend-mode:color-dodge"/>
<path d="M172.128 196.418C173.151 196.418 173.981 195.522 173.981 194.416C173.981 193.311 173.151 192.415 172.128 192.415C171.105 192.415 170.275 193.311 170.275 194.416C170.275 195.522 171.105 196.418 172.128 196.418Z" fill="url(#paint16_radial_118_1072)" style="mix-blend-mode:color-dodge"/>
<path d="M134.847 197.851C134.847 198.362 134.987 198.861 135.25 199.286C135.512 199.711 135.886 200.042 136.322 200.237C136.759 200.433 137.24 200.484 137.704 200.384C138.167 200.285 138.593 200.039 138.928 199.677C139.262 199.316 139.49 198.856 139.582 198.355C139.674 197.854 139.627 197.335 139.446 196.863C139.265 196.391 138.959 195.988 138.565 195.704C138.172 195.42 137.71 195.269 137.237 195.269C136.603 195.269 135.995 195.541 135.547 196.025C135.099 196.509 134.847 197.166 134.847 197.851Z" fill="url(#paint17_radial_118_1072)" style="mix-blend-mode:color-dodge"/>
<path d="M242.723 193.277C242.723 193.673 242.614 194.06 242.411 194.389C242.207 194.718 241.918 194.975 241.579 195.126C241.241 195.278 240.868 195.317 240.509 195.24C240.149 195.163 239.819 194.972 239.56 194.692C239.301 194.413 239.125 194.056 239.053 193.668C238.982 193.279 239.018 192.877 239.159 192.511C239.299 192.145 239.536 191.833 239.841 191.613C240.146 191.393 240.504 191.276 240.87 191.276C241.362 191.276 241.833 191.486 242.18 191.862C242.528 192.237 242.723 192.746 242.723 193.277Z" fill="url(#paint18_radial_118_1072)" style="mix-blend-mode:color-dodge"/>
<path d="M269.689 263.258C269.692 264.05 269.476 264.826 269.07 265.487C268.663 266.147 268.085 266.662 267.407 266.966C266.73 267.271 265.984 267.351 265.264 267.197C264.544 267.043 263.883 266.662 263.364 266.101C262.845 265.541 262.492 264.826 262.349 264.048C262.206 263.271 262.281 262.465 262.563 261.733C262.845 261.001 263.321 260.376 263.933 259.937C264.544 259.498 265.262 259.265 265.996 259.267C266.481 259.267 266.961 259.371 267.409 259.571C267.857 259.772 268.264 260.066 268.607 260.436C268.95 260.807 269.222 261.247 269.408 261.731C269.594 262.215 269.689 262.734 269.689 263.258Z" fill="url(#paint19_radial_118_1072)" style="mix-blend-mode:color-dodge"/>
<path d="M24.714 175.111C24.7164 175.848 24.5162 176.569 24.1389 177.182C23.7615 177.796 23.224 178.275 22.5945 178.558C21.9649 178.841 21.2718 178.916 20.6029 178.772C19.934 178.629 19.3196 178.275 18.8374 177.754C18.3552 177.233 18.0271 176.569 17.8947 175.847C17.7622 175.124 17.8314 174.375 18.0934 173.695C18.3555 173.015 18.7986 172.434 19.3665 172.027C19.9344 171.619 20.6017 171.403 21.2835 171.405C22.1934 171.405 23.0659 171.796 23.7093 172.491C24.3526 173.186 24.714 174.128 24.714 175.111Z" fill="url(#paint20_radial_118_1072)" style="mix-blend-mode:color-dodge"/>
<path d="M21.0571 213.668C21.0595 214.236 20.9056 214.792 20.6149 215.266C20.3242 215.739 19.9099 216.108 19.4245 216.327C18.9392 216.546 18.4047 216.603 17.8888 216.493C17.3729 216.383 16.899 216.11 16.5272 215.708C16.1554 215.306 15.9024 214.794 15.8004 214.237C15.6984 213.68 15.752 213.102 15.9543 212.578C16.1566 212.053 16.4986 211.606 16.9368 211.292C17.375 210.978 17.8897 210.812 18.4155 210.814C19.1161 210.814 19.788 211.115 20.2834 211.65C20.7788 212.185 21.0571 212.911 21.0571 213.668Z" fill="url(#paint21_radial_118_1072)" style="mix-blend-mode:color-dodge"/>
<path d="M328.127 382.654C329.731 382.654 331.032 381.249 331.032 379.516C331.032 377.783 329.731 376.378 328.127 376.378C326.523 376.378 325.223 377.783 325.223 379.516C325.223 381.249 326.523 382.654 328.127 382.654Z" fill="url(#paint22_radial_118_1072)" style="mix-blend-mode:color-dodge"/>
<path d="M332.084 339.303C332.084 339.98 331.898 340.642 331.55 341.204C331.202 341.767 330.708 342.206 330.129 342.465C329.55 342.724 328.913 342.792 328.299 342.659C327.684 342.527 327.12 342.202 326.677 341.723C326.234 341.244 325.932 340.635 325.81 339.971C325.688 339.307 325.75 338.619 325.99 337.994C326.23 337.368 326.636 336.834 327.157 336.458C327.678 336.082 328.29 335.881 328.917 335.881C329.757 335.881 330.562 336.242 331.156 336.883C331.75 337.525 332.084 338.396 332.084 339.303Z" fill="url(#paint23_radial_118_1072)" style="mix-blend-mode:color-dodge"/>
<path d="M56.4858 85.71C56.4882 86.2781 56.3343 86.8341 56.0436 87.3075C55.7529 87.7809 55.3386 88.1504 54.8533 88.369C54.3679 88.5875 53.8334 88.6454 53.3175 88.5352C52.8017 88.425 52.3278 88.1517 51.9559 87.75C51.5841 87.3483 51.3311 86.8363 51.2291 86.279C51.1271 85.7217 51.1807 85.1442 51.383 84.6198C51.5853 84.0955 51.9273 83.6479 52.3655 83.3339C52.8037 83.0198 53.3184 82.8536 53.8442 82.8561C54.1911 82.8561 54.5346 82.9299 54.8551 83.0733C55.1756 83.2168 55.4668 83.427 55.7121 83.692C55.9574 83.957 56.152 84.2716 56.2848 84.6179C56.4175 84.9641 56.4858 85.3352 56.4858 85.71Z" fill="url(#paint24_radial_118_1072)" style="mix-blend-mode:color-dodge"/>
<path d="M96.1462 73.7154C96.1462 74.5071 95.9289 75.2811 95.5217 75.9394C95.1146 76.5977 94.5359 77.1108 93.8588 77.4138C93.1817 77.7168 92.4367 77.7961 91.7179 77.6416C90.9991 77.4871 90.3389 77.1059 89.8206 76.546C89.3024 75.9862 88.9495 75.2729 88.8066 74.4963C88.6636 73.7198 88.7369 72.9149 89.0174 72.1834C89.2979 71.4519 89.7728 70.8267 90.3822 70.3868C90.9915 69.947 91.7079 69.7122 92.4408 69.7122C92.9278 69.7105 93.4104 69.8129 93.8607 70.0134C94.3109 70.214 94.7201 70.5088 95.0645 70.8809C95.4089 71.253 95.6817 71.6949 95.8674 72.1814C96.053 72.6678 96.1478 73.1892 96.1462 73.7154Z" fill="url(#paint25_radial_118_1072)" style="mix-blend-mode:color-dodge"/>
<path d="M107.776 124.269C107.776 125.229 107.512 126.168 107.018 126.967C106.525 127.765 105.823 128.387 105.001 128.755C104.18 129.122 103.276 129.219 102.405 129.031C101.533 128.844 100.732 128.381 100.103 127.702C99.4749 127.023 99.0469 126.158 98.8735 125.216C98.7 124.274 98.7891 123.298 99.1292 122.411C99.4694 121.524 100.045 120.765 100.785 120.232C101.524 119.698 102.393 119.414 103.281 119.414C104.473 119.414 105.617 119.925 106.459 120.836C107.302 121.746 107.776 122.981 107.776 124.269Z" fill="url(#paint26_radial_118_1072)" style="mix-blend-mode:color-dodge"/>
</g>
<path d="M301.747 110.863C303.391 110.863 304.723 109.423 304.723 107.647C304.723 105.871 303.391 104.432 301.747 104.432C300.103 104.432 298.771 105.871 298.771 107.647C298.771 109.423 300.103 110.863 301.747 110.863Z" fill="url(#paint27_radial_118_1072)" style="mix-blend-mode:color-dodge"/>
<path d="M209.541 122.253C211.732 122.253 213.509 120.333 213.509 117.965C213.509 115.597 211.732 113.678 209.541 113.678C207.349 113.678 205.572 115.597 205.572 117.965C205.572 120.333 207.349 122.253 209.541 122.253Z" fill="url(#paint28_radial_118_1072)" style="mix-blend-mode:color-dodge"/>
<path d="M174.041 110.863C176.338 110.863 178.2 108.851 178.2 106.369C178.2 103.887 176.338 101.875 174.041 101.875C171.743 101.875 169.881 103.887 169.881 106.369C169.881 108.851 171.743 110.863 174.041 110.863Z" fill="url(#paint29_radial_118_1072)" style="mix-blend-mode:color-dodge"/>
<path d="M146.142 149.863C146.142 150.543 145.955 151.207 145.606 151.773C145.256 152.338 144.758 152.778 144.177 153.038C143.595 153.297 142.955 153.364 142.338 153.231C141.721 153.097 141.154 152.769 140.71 152.287C140.266 151.805 139.964 151.192 139.843 150.525C139.722 149.858 139.786 149.167 140.029 148.539C140.271 147.912 140.681 147.376 141.205 147C141.729 146.625 142.345 146.425 142.975 146.428C143.392 146.428 143.805 146.517 144.19 146.69C144.575 146.862 144.924 147.116 145.219 147.435C145.513 147.754 145.746 148.133 145.905 148.549C146.063 148.966 146.144 149.412 146.142 149.863Z" fill="url(#paint30_radial_118_1072)" style="mix-blend-mode:color-dodge"/>
<path d="M243.249 222.695C245.44 222.695 247.217 220.775 247.217 218.408C247.217 216.04 245.44 214.12 243.249 214.12C241.057 214.12 239.28 216.04 239.28 218.408C239.28 220.775 241.057 222.695 243.249 222.695Z" fill="url(#paint31_radial_118_1072)" style="mix-blend-mode:color-dodge"/>
<path d="M293.225 445.929C293.225 447.206 292.874 448.454 292.217 449.516C291.561 450.578 290.627 451.405 289.535 451.894C288.443 452.383 287.241 452.51 286.082 452.261C284.923 452.012 283.858 451.397 283.022 450.494C282.186 449.591 281.617 448.441 281.386 447.188C281.156 445.936 281.274 444.638 281.726 443.458C282.179 442.278 282.945 441.27 283.928 440.56C284.91 439.851 286.066 439.472 287.248 439.472C288.833 439.472 290.353 440.152 291.474 441.363C292.595 442.574 293.225 444.216 293.225 445.929Z" fill="url(#paint32_radial_118_1072)" style="mix-blend-mode:color-dodge"/>
<path d="M361.441 491.775C361.444 492.964 361.12 494.126 360.511 495.115C359.901 496.104 359.034 496.876 358.019 497.332C357.003 497.789 355.885 497.91 354.806 497.679C353.727 497.449 352.736 496.878 351.957 496.039C351.179 495.2 350.648 494.13 350.433 492.965C350.217 491.799 350.327 490.591 350.747 489.493C351.167 488.395 351.88 487.457 352.794 486.796C353.708 486.136 354.784 485.784 355.883 485.784C357.355 485.784 358.767 486.414 359.809 487.538C360.851 488.661 361.438 490.185 361.441 491.775Z" fill="url(#paint33_radial_118_1072)" style="mix-blend-mode:color-dodge"/>
<path d="M367.787 432.278C367.787 433.21 367.531 434.121 367.052 434.896C366.573 435.672 365.891 436.276 365.094 436.632C364.297 436.989 363.42 437.083 362.573 436.901C361.727 436.719 360.95 436.27 360.339 435.611C359.729 434.952 359.314 434.112 359.145 433.197C358.977 432.283 359.063 431.335 359.394 430.474C359.724 429.613 360.283 428.877 361.001 428.359C361.718 427.841 362.561 427.564 363.424 427.564C364.581 427.564 365.691 428.061 366.509 428.945C367.328 429.829 367.787 431.028 367.787 432.278Z" fill="url(#paint34_radial_118_1072)" style="mix-blend-mode:color-dodge"/>
<path d="M239.28 424.933C239.28 425.61 239.095 426.272 238.747 426.834C238.399 427.397 237.904 427.836 237.325 428.095C236.746 428.354 236.109 428.422 235.495 428.29C234.88 428.157 234.316 427.832 233.873 427.353C233.43 426.874 233.128 426.265 233.006 425.601C232.884 424.937 232.947 424.249 233.186 423.624C233.426 422.998 233.832 422.464 234.353 422.088C234.874 421.712 235.486 421.511 236.113 421.511C236.529 421.509 236.942 421.597 237.327 421.768C237.712 421.94 238.062 422.192 238.356 422.51C238.651 422.828 238.884 423.206 239.043 423.622C239.201 424.038 239.282 424.483 239.28 424.933Z" fill="url(#paint35_radial_118_1072)" style="mix-blend-mode:color-dodge"/>
<path d="M171.076 365.8C171.078 366.48 170.894 367.145 170.546 367.712C170.198 368.278 169.702 368.721 169.121 368.983C168.541 369.245 167.901 369.315 167.283 369.183C166.666 369.052 166.098 368.726 165.652 368.246C165.206 367.766 164.902 367.154 164.779 366.488C164.655 365.821 164.717 365.13 164.958 364.501C165.198 363.873 165.605 363.336 166.129 362.958C166.652 362.58 167.267 362.378 167.896 362.378C168.737 362.378 169.544 362.738 170.14 363.379C170.736 364.021 171.073 364.891 171.076 365.8Z" fill="url(#paint36_radial_118_1072)" style="mix-blend-mode:color-dodge"/>
<path d="M167.108 322.968C167.986 322.968 168.698 322.199 168.698 321.25C168.698 320.302 167.986 319.533 167.108 319.533C166.23 319.533 165.519 320.302 165.519 321.25C165.519 322.199 166.23 322.968 167.108 322.968Z" fill="url(#paint37_radial_118_1072)" style="mix-blend-mode:color-dodge"/>
<path d="M189.317 295.966C189.317 296.39 189.201 296.804 188.983 297.157C188.765 297.509 188.455 297.784 188.092 297.946C187.73 298.109 187.331 298.151 186.946 298.068C186.561 297.986 186.207 297.782 185.93 297.482C185.652 297.182 185.463 296.8 185.387 296.384C185.31 295.968 185.349 295.537 185.5 295.146C185.65 294.754 185.904 294.419 186.23 294.184C186.557 293.948 186.94 293.822 187.333 293.822C187.859 293.822 188.364 294.048 188.736 294.45C189.108 294.852 189.317 295.397 189.317 295.966Z" fill="url(#paint38_radial_118_1072)" style="mix-blend-mode:color-dodge"/>
<path d="M169.749 171.569C169.749 171.965 169.641 172.352 169.437 172.681C169.234 173.01 168.944 173.267 168.606 173.418C168.267 173.57 167.895 173.609 167.535 173.532C167.176 173.455 166.846 173.264 166.587 172.984C166.327 172.704 166.151 172.348 166.08 171.96C166.008 171.571 166.045 171.169 166.185 170.803C166.325 170.437 166.563 170.125 166.867 169.905C167.172 169.685 167.53 169.568 167.897 169.568C168.388 169.568 168.859 169.778 169.207 170.154C169.554 170.529 169.749 171.038 169.749 171.569Z" fill="url(#paint39_radial_118_1072)" style="mix-blend-mode:color-dodge"/>
<path d="M172.128 196.418C173.151 196.418 173.981 195.522 173.981 194.416C173.981 193.311 173.151 192.415 172.128 192.415C171.105 192.415 170.275 193.311 170.275 194.416C170.275 195.522 171.105 196.418 172.128 196.418Z" fill="url(#paint40_radial_118_1072)" style="mix-blend-mode:color-dodge"/>
<path d="M134.847 197.851C134.847 198.362 134.987 198.861 135.25 199.286C135.512 199.711 135.886 200.042 136.322 200.237C136.759 200.433 137.24 200.484 137.704 200.384C138.167 200.285 138.593 200.039 138.928 199.677C139.262 199.316 139.49 198.856 139.582 198.355C139.674 197.854 139.627 197.335 139.446 196.863C139.265 196.391 138.959 195.988 138.565 195.704C138.172 195.42 137.71 195.269 137.237 195.269C136.603 195.269 135.995 195.541 135.547 196.025C135.099 196.509 134.847 197.166 134.847 197.851Z" fill="url(#paint41_radial_118_1072)" style="mix-blend-mode:color-dodge"/>
<path d="M242.723 193.277C242.723 193.673 242.614 194.06 242.411 194.389C242.207 194.718 241.918 194.975 241.579 195.126C241.241 195.278 240.868 195.317 240.509 195.24C240.149 195.163 239.819 194.972 239.56 194.692C239.301 194.413 239.125 194.056 239.053 193.668C238.982 193.279 239.018 192.877 239.159 192.511C239.299 192.145 239.536 191.833 239.841 191.613C240.146 191.393 240.504 191.276 240.87 191.276C241.362 191.276 241.833 191.486 242.18 191.862C242.528 192.237 242.723 192.746 242.723 193.277Z" fill="url(#paint42_radial_118_1072)" style="mix-blend-mode:color-dodge"/>
<path d="M269.689 263.258C269.692 264.05 269.476 264.826 269.07 265.487C268.663 266.147 268.085 266.662 267.407 266.966C266.73 267.271 265.984 267.351 265.264 267.197C264.544 267.043 263.883 266.662 263.364 266.101C262.845 265.541 262.492 264.826 262.349 264.048C262.206 263.271 262.281 262.465 262.563 261.733C262.845 261.001 263.321 260.376 263.933 259.937C264.544 259.498 265.262 259.265 265.996 259.267C266.481 259.267 266.961 259.371 267.409 259.571C267.857 259.772 268.264 260.066 268.607 260.436C268.95 260.807 269.222 261.247 269.408 261.731C269.594 262.215 269.689 262.734 269.689 263.258Z" fill="url(#paint43_radial_118_1072)" style="mix-blend-mode:color-dodge"/>
<path d="M24.714 175.111C24.7164 175.848 24.5162 176.569 24.1389 177.182C23.7615 177.796 23.224 178.275 22.5945 178.558C21.9649 178.841 21.2718 178.916 20.6029 178.772C19.934 178.629 19.3196 178.275 18.8374 177.754C18.3552 177.233 18.0271 176.569 17.8947 175.847C17.7622 175.124 17.8314 174.375 18.0934 173.695C18.3555 173.015 18.7986 172.434 19.3665 172.027C19.9344 171.619 20.6017 171.403 21.2835 171.405C22.1934 171.405 23.0659 171.796 23.7093 172.491C24.3526 173.186 24.714 174.128 24.714 175.111Z" fill="url(#paint44_radial_118_1072)" style="mix-blend-mode:color-dodge"/>
<path d="M21.0571 213.668C21.0595 214.236 20.9056 214.792 20.6149 215.266C20.3242 215.739 19.9099 216.108 19.4245 216.327C18.9392 216.546 18.4047 216.603 17.8888 216.493C17.3729 216.383 16.899 216.11 16.5272 215.708C16.1554 215.306 15.9024 214.794 15.8004 214.237C15.6984 213.68 15.752 213.102 15.9543 212.578C16.1566 212.053 16.4986 211.606 16.9368 211.292C17.375 210.978 17.8897 210.812 18.4155 210.814C19.1161 210.814 19.788 211.115 20.2834 211.65C20.7788 212.185 21.0571 212.911 21.0571 213.668Z" fill="url(#paint45_radial_118_1072)" style="mix-blend-mode:color-dodge"/>
<path d="M328.127 382.654C329.731 382.654 331.032 381.249 331.032 379.516C331.032 377.783 329.731 376.378 328.127 376.378C326.523 376.378 325.223 377.783 325.223 379.516C325.223 381.249 326.523 382.654 328.127 382.654Z" fill="url(#paint46_radial_118_1072)" style="mix-blend-mode:color-dodge"/>
<path d="M332.084 339.303C332.084 339.98 331.898 340.642 331.55 341.204C331.202 341.767 330.708 342.206 330.129 342.465C329.55 342.724 328.913 342.792 328.299 342.659C327.684 342.527 327.12 342.202 326.677 341.723C326.234 341.244 325.932 340.635 325.81 339.971C325.688 339.307 325.75 338.619 325.99 337.994C326.23 337.368 326.636 336.834 327.157 336.458C327.678 336.082 328.29 335.881 328.917 335.881C329.757 335.881 330.562 336.242 331.156 336.883C331.75 337.525 332.084 338.396 332.084 339.303Z" fill="url(#paint47_radial_118_1072)" style="mix-blend-mode:color-dodge"/>
<path d="M56.4858 85.71C56.4882 86.2781 56.3343 86.8341 56.0436 87.3075C55.7529 87.7809 55.3386 88.1504 54.8533 88.369C54.3679 88.5875 53.8334 88.6454 53.3175 88.5352C52.8017 88.425 52.3278 88.1517 51.9559 87.75C51.5841 87.3483 51.3311 86.8363 51.2291 86.279C51.1271 85.7217 51.1807 85.1442 51.383 84.6198C51.5853 84.0955 51.9273 83.6479 52.3655 83.3339C52.8037 83.0198 53.3184 82.8536 53.8442 82.8561C54.1911 82.8561 54.5346 82.9299 54.8551 83.0733C55.1756 83.2168 55.4668 83.427 55.7121 83.692C55.9574 83.957 56.152 84.2716 56.2848 84.6179C56.4175 84.9641 56.4858 85.3352 56.4858 85.71Z" fill="url(#paint48_radial_118_1072)" style="mix-blend-mode:color-dodge"/>
<path d="M107.776 124.269C107.776 125.229 107.512 126.168 107.018 126.967C106.525 127.765 105.823 128.387 105.001 128.755C104.18 129.122 103.276 129.219 102.405 129.031C101.533 128.844 100.732 128.381 100.103 127.702C99.4749 127.023 99.0469 126.158 98.8735 125.216C98.7 124.274 98.7891 123.298 99.1292 122.411C99.4694 121.524 100.045 120.765 100.785 120.232C101.524 119.698 102.393 119.414 103.281 119.414C104.473 119.414 105.617 119.925 106.459 120.836C107.302 121.746 107.776 122.981 107.776 124.269Z" fill="url(#paint49_radial_118_1072)" style="mix-blend-mode:color-dodge"/>
<path fill-rule="evenodd" clip-rule="evenodd" d="M214.153 231.185C222.549 237.273 228.997 245.91 232.316 255.992C232.689 255.94 233.062 255.911 233.458 255.859C234.157 255.802 234.857 255.769 235.557 255.759C242.907 255.653 249.599 258.452 254.59 263.095C259.392 267.554 262.584 273.716 263.243 280.615C272.617 281.648 281.012 286.056 287.128 292.62C293.386 299.345 297.272 308.322 297.413 318.216C297.565 328.81 293.409 338.485 286.555 345.538C279.701 352.592 270.172 357.023 259.578 357.174L259.554 357.175L110.283 359.312C99.6892 359.463 90.0372 355.307 82.9839 348.453C75.9307 341.599 71.4998 332.07 71.3478 321.452C71.2048 311.465 74.9011 302.287 81.0569 295.36C87.075 288.599 95.4577 283.974 104.916 282.789C105.377 275.874 108.416 269.645 113.065 265.074C117.921 260.313 124.53 257.325 131.881 257.219C132.861 257.205 133.841 257.238 134.846 257.34C135.501 257.401 136.132 257.485 136.764 257.593C139.768 247.374 145.943 238.51 154.161 232.137C162.448 225.717 172.801 221.835 184.072 221.673C195.296 221.513 205.71 225.074 214.153 231.185Z" fill="#A5E3FC"/>
<path fill-rule="evenodd" clip-rule="evenodd" d="M180.166 296.252C178.78 295.571 177.598 294.561 176.717 293.314C175.716 291.881 175.107 290.139 175.08 288.249C175.045 285.752 176.016 283.474 177.626 281.818C179.236 280.161 181.485 279.125 183.982 279.089C186.478 279.054 188.756 280.025 190.413 281.635C192.07 283.245 193.106 285.494 193.141 287.991C193.168 289.857 192.633 291.592 191.673 293.053C190.851 294.325 189.699 295.368 188.356 296.088L189.462 309.725C189.517 310.331 189.058 310.852 188.452 310.907L188.382 310.908L186.655 310.933L180.518 311.02C179.911 311.029 179.414 310.546 179.405 309.939C179.405 309.893 179.404 309.846 179.403 309.799L180.166 296.252ZM197.014 266.673C192.278 265.154 187.72 263.095 183.506 260.565C179.39 263.238 174.87 265.403 170.179 267.057C165.396 268.759 160.394 269.928 155.409 270.583L155.423 271.586C155.433 272.239 155.465 272.869 155.475 273.523C155.595 277.045 155.879 280.589 156.35 284.129C156.795 287.531 157.404 290.883 158.174 294.139C160.185 302.583 163.381 310.659 168.261 317.311C172.355 322.877 177.672 327.445 184.459 330.382C191.183 327.252 196.343 322.534 200.276 316.852C204.987 310.063 207.951 301.899 209.697 293.402C210.373 290.101 210.885 286.733 211.233 283.344C211.602 279.791 211.784 276.217 211.804 272.716C211.818 272.062 211.809 271.409 211.8 270.779L211.786 269.776C206.877 269.262 201.868 268.237 197.014 266.673Z" fill="#B6EAFF"/>
<path fill-rule="evenodd" clip-rule="evenodd" d="M86.7475 212.027L97.4718 201.418C98.1852 200.707 99.3521 200.714 100.062 201.427C100.773 202.14 100.766 203.308 100.053 204.018L88.0864 215.882C87.396 216.569 86.2759 216.585 85.5428 215.919L77.8075 208.701C77.0742 208.011 77.0341 206.845 77.7237 206.111C78.4134 205.378 79.5798 205.338 80.3132 206.028L86.7475 212.027ZM101.619 220.52C108.22 213.727 108.065 202.876 101.272 196.275C97.8879 192.986 93.477 191.369 89.09 191.432C79.6395 191.567 72.0722 199.354 72.2078 208.828C72.3435 218.302 80.1305 225.869 89.581 225.733C93.9442 225.648 98.3075 223.928 101.619 220.52Z" fill="#B6EAFF"/>
<path fill-rule="evenodd" clip-rule="evenodd" d="M269.239 199.145C265.513 203.003 265.601 209.14 269.436 212.889C273.27 216.639 279.431 216.55 283.156 212.693C285.019 210.776 285.94 208.265 285.905 205.792C285.869 203.295 284.877 200.835 282.96 198.972C281.043 197.109 278.532 196.188 276.059 196.223C273.562 196.236 271.102 197.205 269.239 199.145Z" fill="#B6EAFF"/>
<path fill-rule="evenodd" clip-rule="evenodd" d="M305.429 296.209L302.171 296.932L302.231 301.109L305.555 301.762C305.952 301.826 306.26 302.102 306.381 302.45C306.454 302.636 306.527 302.822 306.599 302.984C306.696 303.193 306.768 303.355 306.84 303.494C307.008 303.842 306.991 304.262 306.785 304.568L304.983 307.442L307.965 310.34L310.785 308.455C311.132 308.217 311.552 308.211 311.905 308.393C312.046 308.461 312.21 308.528 312.398 308.596C312.585 308.663 312.773 308.73 312.914 308.798C313.289 308.933 313.55 309.233 313.649 309.605L314.397 312.908L318.573 312.848L319.226 309.525C319.314 309.127 319.589 308.82 319.961 308.698C320.123 308.625 320.286 308.576 320.448 308.504C320.657 308.407 320.819 308.335 320.958 308.263C321.306 308.095 321.726 308.112 322.033 308.318L324.906 310.12L327.804 307.138L325.92 304.318C325.682 303.971 325.676 303.551 325.857 303.198C325.925 303.057 325.993 302.893 326.06 302.705C326.128 302.541 326.195 302.353 326.263 302.166C326.397 301.767 326.72 301.506 327.116 301.43L330.373 300.706L330.313 296.53L326.989 295.877C326.592 295.813 326.284 295.537 326.163 295.189C326.09 295.003 326.018 294.841 325.945 294.655C325.849 294.446 325.776 294.284 325.704 294.145C325.536 293.797 325.553 293.377 325.759 293.071L327.562 290.197L324.579 287.299L321.759 289.183C321.412 289.422 320.992 289.428 320.64 289.246C320.499 289.178 320.334 289.11 320.146 289.043L320.099 289.02C319.935 288.953 319.794 288.908 319.63 288.84C319.255 288.706 318.994 288.406 318.895 288.034L318.148 284.731L313.971 284.79L313.318 288.114C313.254 288.512 312.978 288.819 312.63 288.941C312.444 289.013 312.282 289.086 312.096 289.158C311.887 289.255 311.725 289.327 311.586 289.399C311.238 289.567 310.818 289.55 310.512 289.344L307.638 287.542L304.74 290.524L306.625 293.344C306.863 293.691 306.869 294.111 306.687 294.464C306.619 294.605 306.552 294.769 306.484 294.957C306.417 295.121 306.349 295.309 306.282 295.497C306.147 295.872 305.801 296.157 305.429 296.209ZM310.019 298.921C309.994 297.217 310.672 295.644 311.776 294.508C312.88 293.372 314.433 292.649 316.137 292.625C317.84 292.6 319.414 293.278 320.55 294.382C321.686 295.486 322.408 297.039 322.433 298.743C322.457 300.446 321.779 302.02 320.675 303.156C319.571 304.292 318.018 305.014 316.314 305.039C314.611 305.063 313.038 304.385 311.901 303.281C310.765 302.177 310.043 300.647 310.019 298.921Z" fill="#B6EAFF"/>
<path fill-rule="evenodd" clip-rule="evenodd" d="M282.843 384.732C281.734 383.931 280.374 383.46 278.904 383.481C277.434 383.502 276.064 384.012 275.002 384.844C273.894 385.7 273.071 386.902 272.695 388.308C272.539 388.87 271.984 389.228 271.422 389.096C271.305 389.075 271.188 389.053 271.095 389.054C271.001 389.056 270.884 389.034 270.768 389.036C269.951 389.047 269.232 389.384 268.703 389.905C268.174 390.427 267.857 391.108 267.798 391.879C267.806 392.462 267.393 392.958 266.81 393.013C265.598 393.124 264.533 393.723 263.775 394.574C263.017 395.425 262.567 396.552 262.584 397.788C262.603 399.095 263.156 400.254 264.009 401.106C264.885 401.957 266.059 402.453 267.365 402.435L290.677 402.101C291.983 402.082 293.142 401.529 293.994 400.676C294.845 399.801 295.341 398.626 295.323 397.32C295.305 396.106 294.823 394.993 294.064 394.164C293.282 393.335 292.224 392.79 291.032 392.667C290.494 392.628 290.045 392.191 290.013 391.631C289.955 390.838 289.618 390.12 289.051 389.614C288.507 389.108 287.779 388.792 286.962 388.804C286.869 388.805 286.799 388.806 286.729 388.807C286.659 388.808 286.589 388.833 286.496 388.834C285.96 388.912 285.419 388.616 285.271 388.081C284.831 386.71 283.975 385.556 282.843 384.732Z" fill="#B6EAFF"/>
<path fill-rule="evenodd" clip-rule="evenodd" d="M98.9698 402.325C102.696 398.467 102.608 392.33 98.773 388.58C96.8559 386.717 94.3454 385.796 91.8719 385.832C89.3984 385.867 86.9153 386.86 85.0523 388.777C81.3265 392.635 81.4144 398.772 85.249 402.521C89.0834 406.247 95.2204 406.159 98.9698 402.325Z" fill="#B6EAFF"/>
<path fill-rule="evenodd" clip-rule="evenodd" d="M40.704 318.46L63.6886 318.131C63.6856 317.921 63.7059 317.711 63.7026 317.478C63.6505 313.837 62.2966 310.566 60.1624 308.216C58.0523 305.912 55.1614 304.506 52.0112 304.551C48.861 304.597 46.0116 306.084 43.9682 308.448C41.9022 310.858 40.6425 314.167 40.6946 317.807C40.6746 318.041 40.6777 318.251 40.704 318.46Z" fill="#B6EAFF"/>
<path fill-rule="evenodd" clip-rule="evenodd" d="M47.4112 297.802C48.5709 298.929 50.1677 299.607 51.9178 299.582C53.6679 299.557 55.2447 298.834 56.3717 297.674C57.4987 296.514 58.176 294.917 58.151 293.167C58.1259 291.417 57.4032 289.841 56.2434 288.714C55.0836 287.587 53.4869 286.909 51.7368 286.934C49.9867 286.959 48.4099 287.682 47.2829 288.842C46.1559 290.002 45.4786 291.598 45.5036 293.348C45.5287 295.099 46.2514 296.675 47.4112 297.802Z" fill="#B6EAFF"/>
<path fill-rule="evenodd" clip-rule="evenodd" d="M181.033 431.771L177.766 431.818L176.39 431.837L176.59 445.815C176.594 446.095 176.714 446.326 176.88 446.511C177.069 446.695 177.304 446.785 177.584 446.781L194.805 446.534C195.085 446.53 195.316 446.41 195.501 446.244L195.547 446.197C195.708 446.031 195.798 445.797 195.794 445.54L195.594 431.562L194.217 431.582L190.95 431.629L181.033 431.771ZM184.083 444.26L184.382 439.098C182.243 437.985 181.758 435.121 183.437 433.37C185.691 431.051 189.588 432.652 189.634 435.826C189.653 437.156 188.923 438.38 187.789 439.026L188.212 444.155C188.241 444.504 188.011 444.788 187.685 444.792L184.651 444.836C184.301 444.841 184.064 444.564 184.083 444.26Z" fill="#B6EAFF"/>
<path fill-rule="evenodd" clip-rule="evenodd" d="M170.025 182.898L194.783 182.543C194.946 182.541 195.109 182.468 195.2 182.35C195.315 182.232 195.383 182.091 195.381 181.928L195.141 165.173C195.139 165.01 195.067 164.848 194.949 164.756C194.83 164.641 194.689 164.573 194.526 164.575L193.126 164.596L171.168 164.91L169.768 164.93C169.604 164.932 169.442 165.005 169.35 165.123C169.235 165.241 169.167 165.382 169.17 165.545L169.41 182.3C169.412 182.463 169.484 182.625 169.602 182.717C169.721 182.832 169.862 182.9 170.025 182.898ZM184.93 167.584C186.658 169.286 186.279 172.139 184.195 173.312L184.618 178.441C184.647 178.791 184.417 179.074 184.091 179.079L181.057 179.122C180.731 179.127 180.493 178.85 180.489 178.547L180.788 173.384C178.649 172.271 178.164 169.408 179.843 167.656C181.2 166.237 183.393 166.182 184.93 167.584Z" fill="#B6EAFF"/>
<path fill-rule="evenodd" clip-rule="evenodd" d="M172.182 157.543L191.923 157.261L191.911 156.421C191.902 155.814 191.637 155.258 191.235 154.843C190.832 154.452 190.269 154.204 189.639 154.213L174.378 154.431C173.771 154.44 173.215 154.705 172.8 155.107C172.409 155.51 172.161 156.097 172.17 156.703L172.182 157.543Z" fill="#B6EAFF"/>
<path fill-rule="evenodd" clip-rule="evenodd" d="M254.706 351.292L105.435 353.429C98.6911 353.526 92.3427 351.89 86.792 348.912C93.1685 354.142 101.358 357.245 110.249 357.118H110.272L259.567 354.98C269.554 354.837 278.55 350.648 284.99 344.02C291.453 337.37 295.361 328.281 295.218 318.271C295.131 312.227 293.58 306.555 290.871 301.575C291.924 304.991 292.512 308.6 292.566 312.357C292.717 322.951 288.561 332.626 281.707 339.68C274.853 346.71 265.324 351.14 254.706 351.292Z" fill="#79C6E7"/>
<path fill-rule="evenodd" clip-rule="evenodd" d="M184.082 258.316C188.274 260.94 192.902 263.021 197.685 264.586C202.68 266.195 207.876 267.241 213.04 267.681C213.601 267.719 214.028 268.18 214.036 268.763C214.046 269.44 214.055 270.117 214.065 270.77C214.075 271.447 214.061 272.101 214.07 272.731C214.051 276.348 213.847 279.992 213.501 283.568C213.154 287.004 212.62 290.466 211.921 293.86C210.11 302.638 207.033 311.084 202.163 318.133C197.933 324.261 192.334 329.313 184.982 332.616C184.727 332.736 184.401 332.741 184.119 332.628C176.699 329.537 170.958 324.624 166.531 318.643C161.437 311.737 158.144 303.382 156.082 294.659C155.286 291.287 154.654 287.841 154.208 284.417C153.736 280.829 153.451 277.216 153.33 273.6C153.297 272.97 153.288 272.317 153.278 271.64C153.269 270.987 153.259 270.334 153.25 269.68C153.218 269.097 153.655 268.601 154.237 268.546C159.364 267.959 164.528 266.765 169.497 265.013C174.235 263.335 178.778 261.123 182.916 258.379C183.239 258.095 183.705 258.088 184.082 258.316ZM183.428 253.377C180.634 255.495 175.247 259.026 167.583 261.703C162.567 263.455 156.541 264.802 149.638 265.157C149.258 272.842 148.232 323.503 184.622 336.822C220.617 322.49 218.141 271.855 217.541 264.185C210.631 264.051 204.569 262.854 199.505 261.246C191.768 258.813 186.281 255.437 183.428 253.377Z" fill="#6FBBDD"/>
<path fill-rule="evenodd" clip-rule="evenodd" d="M155.902 239.674C159.704 236.236 165.201 233.846 172.783 233.575C173.016 233.571 173.251 233.708 173.348 233.94C173.469 234.218 173.31 234.547 173.032 234.668C167.995 236.607 163.391 239.474 159.428 243.078C155.488 246.635 152.212 250.907 149.76 255.726C149.67 255.938 149.462 256.081 149.205 256.084C148.902 256.065 148.664 255.789 148.683 255.485C149.001 249.949 151.133 243.99 155.902 239.674ZM127.135 266.506C128.348 266.466 129.657 266.564 131.084 266.8C131.294 266.82 131.483 266.981 131.557 267.213C131.631 267.516 131.449 267.822 131.146 267.896C127.565 268.811 124.324 270.631 121.722 273.096C119.12 275.583 117.157 278.716 116.064 282.232C115.997 282.467 115.79 282.633 115.533 282.637C115.23 282.641 114.97 282.411 114.965 282.085C114.921 280.661 114.993 279.167 115.276 277.716C115.773 274.931 116.901 272.208 118.808 270.126C120.716 268.069 123.426 266.653 127.135 266.506ZM90.4859 297.045C93.9686 294.148 98.8899 292.281 105.521 292.466C105.778 292.462 105.991 292.646 106.064 292.878C106.138 293.18 105.956 293.486 105.654 293.561C101.026 294.771 96.8099 296.978 93.2578 299.923C89.6597 302.915 86.7263 306.692 84.7103 310.968C84.6199 311.18 84.3886 311.323 84.1549 311.303C83.8512 311.284 83.6139 311.007 83.6329 310.704C84.0084 305.96 86.1037 300.702 90.4859 297.045Z" fill="white"/>
<path fill-rule="evenodd" clip-rule="evenodd" d="M77.143 198.138C74.9583 200.409 74.043 203.317 73.9404 205.932C73.9424 206.072 74.0374 206.187 74.2008 206.185C74.3174 206.183 74.4098 206.112 74.4548 205.995C77.3664 199.068 78.2101 197.679 85.0794 194.943C85.2184 194.871 85.2861 194.707 85.2144 194.591C85.166 194.475 85.072 194.43 84.9557 194.455C81.4148 194.926 78.8907 196.315 77.143 198.138Z" fill="white"/>
<path fill-rule="evenodd" clip-rule="evenodd" d="M278.642 200.481C280.743 200.451 282.47 202.13 282.5 204.23C282.53 206.33 280.851 208.058 278.751 208.088C276.651 208.118 274.923 206.439 274.893 204.339C274.863 202.239 276.542 200.511 278.642 200.481Z" fill="white"/>
<path fill-rule="evenodd" clip-rule="evenodd" d="M94.589 389.62C96.6891 389.59 98.4169 391.269 98.447 393.37C98.4771 395.47 96.798 397.197 94.6979 397.228C92.5978 397.258 90.87 395.579 90.8399 393.478C90.8332 391.378 92.4889 389.651 94.589 389.62Z" fill="white"/>
<path fill-rule="evenodd" clip-rule="evenodd" d="M275.025 386.431C275.601 385.909 276.436 385.547 277.602 385.507C277.649 385.506 277.673 385.529 277.696 385.552C277.72 385.599 277.698 385.646 277.651 385.67C276.885 385.961 276.191 386.391 275.569 386.96C274.97 387.505 274.466 388.142 274.103 388.895C274.08 388.918 274.057 388.942 274.011 388.943C273.964 388.943 273.917 388.897 273.939 388.85C273.974 387.986 274.288 387.095 275.025 386.431ZM270.649 390.508C270.836 390.505 271.023 390.526 271.256 390.546C271.28 390.545 271.327 390.568 271.327 390.615C271.328 390.661 271.305 390.708 271.259 390.709C270.701 390.857 270.214 391.121 269.823 391.5C269.431 391.879 269.135 392.35 268.956 392.889C268.956 392.936 268.91 392.96 268.887 392.96C268.84 392.961 268.793 392.915 268.792 392.868C268.789 392.658 268.809 392.425 268.829 392.191C268.916 391.769 269.074 391.347 269.373 391.039C269.672 390.755 270.089 390.539 270.649 390.508ZM265.067 395.162C265.598 394.711 266.341 394.444 267.345 394.476C267.391 394.475 267.415 394.498 267.416 394.545C267.416 394.592 267.394 394.639 267.347 394.639C266.649 394.813 266.001 395.149 265.47 395.6C264.917 396.051 264.482 396.641 264.164 397.276C264.141 397.299 264.118 397.323 264.071 397.324C264.025 397.324 264.001 397.278 264 397.231C264.083 396.53 264.399 395.732 265.067 395.162Z" fill="white"/>
<path fill-rule="evenodd" clip-rule="evenodd" d="M186.769 294.407C188.022 293.875 189.082 292.973 189.836 291.842C190.544 290.758 190.969 289.422 190.949 288.022C190.922 286.132 190.127 284.44 188.873 283.22C187.618 282.001 185.904 281.256 184.014 281.283C182.124 281.31 180.431 282.104 179.212 283.359C177.993 284.613 177.248 286.328 177.275 288.218C177.295 289.641 177.757 290.965 178.496 292.028C179.282 293.137 180.368 294.008 181.659 294.48C182.104 294.637 182.437 295.076 182.398 295.59L181.63 308.787L186.577 308.717L187.137 308.709L186.085 295.56C186.032 295.071 186.305 294.6 186.769 294.407Z" fill="white"/>
<path fill-rule="evenodd" clip-rule="evenodd" d="M187.765 434.102C186.179 432.561 183.488 433.696 183.52 435.936C183.535 436.986 184.178 437.887 185.14 438.247C185.375 438.337 185.518 438.568 185.498 438.802L185.219 443.754L187.063 443.728L186.665 438.785C186.639 438.552 186.799 438.317 187.008 438.244C188.654 437.497 189.067 435.343 187.765 434.102Z" fill="white"/>
<path fill-rule="evenodd" clip-rule="evenodd" d="M179.906 429.57L179.851 425.696C179.83 424.226 180.417 422.887 181.36 421.894C182.303 420.9 183.648 420.297 185.118 420.276L186.518 420.256C187.988 420.235 189.327 420.823 190.321 421.765C191.291 422.732 191.917 424.053 191.938 425.523L191.994 429.397L193.067 429.381L193.012 425.508C192.986 423.734 192.24 422.158 191.057 421.008C189.873 419.858 188.276 419.157 186.503 419.183L185.103 419.203C183.352 419.228 181.753 419.974 180.603 421.158C179.453 422.341 178.752 423.962 178.777 425.712L178.833 429.585L179.906 429.57Z" fill="white"/>
<path fill-rule="evenodd" clip-rule="evenodd" d="M172.257 162.701L191.998 162.418L191.956 159.478L172.215 159.76L172.257 162.701Z" fill="white"/>
<path fill-rule="evenodd" clip-rule="evenodd" d="M184.921 170.128C184.889 167.888 182.166 166.83 180.625 168.415C179.36 169.717 179.858 171.881 181.547 172.51C181.782 172.6 181.925 172.831 181.905 173.065L181.626 178.017L183.47 177.991L183.072 173.048C183.045 172.815 183.205 172.58 183.415 172.507C184.319 172.074 184.936 171.154 184.921 170.128Z" fill="white"/>
<path d="M186.127 223.729C197.351 223.568 207.764 227.106 216.207 233.241C224.603 239.329 231.052 247.965 234.371 258.047C234.743 257.995 235.116 257.966 235.512 257.914C236.212 257.857 236.911 257.824 237.611 257.814C244.962 257.709 251.654 260.507 256.645 265.15C261.446 269.609 264.639 275.772 265.298 282.671C274.672 283.703 283.067 288.111 289.182 294.675C295.44 301.401 299.326 310.377 299.468 320.271C299.62 330.865 295.464 340.541 288.61 347.594C281.755 354.647 272.226 359.078 261.632 359.23H261.609L112.337 361.367C101.744 361.518 92.0918 357.362 85.0385 350.508C77.9853 343.654 73.5544 334.125 73.4024 323.508C73.2594 313.52 76.9557 304.342 83.1115 297.415C89.1296 290.654 97.5123 286.03 106.971 284.844C107.432 277.929 110.47 271.7 115.119 267.129C119.976 262.369 126.585 259.38 133.935 259.275C134.915 259.261 135.896 259.293 136.901 259.396C137.555 259.456 138.187 259.541 138.819 259.648C141.823 249.429 147.998 240.565 156.215 234.193C164.479 227.773 174.856 223.89 186.127 223.729ZM214.903 235.033C206.837 229.174 196.869 225.792 186.159 225.945C175.378 226.1 165.465 229.813 157.548 235.947C149.445 242.225 143.41 251.064 140.662 261.232C140.506 261.795 139.951 262.153 139.389 262.021C138.5 261.847 137.588 261.696 136.699 261.616C135.811 261.535 134.901 261.501 133.967 261.515C127.224 261.611 121.125 264.359 116.66 268.741C112.194 273.123 109.363 279.162 109.132 285.84C109.141 286.423 108.728 286.919 108.145 286.974C98.8694 287.901 90.6241 292.336 84.7666 298.909C78.9552 305.434 75.4846 314.072 75.6195 323.499C75.7625 333.486 79.9523 342.482 86.5799 348.946C93.2308 355.409 102.319 359.316 112.306 359.173H112.329L261.624 357.036C271.612 356.893 280.607 352.703 287.047 346.076C293.511 339.425 297.418 330.337 297.275 320.326C297.141 310.992 293.496 302.526 287.594 296.192C281.644 289.789 273.415 285.565 264.208 284.787C263.67 284.748 263.221 284.311 263.189 283.751C262.79 277.035 259.787 271.057 255.174 266.781C250.586 262.529 244.411 259.957 237.667 260.054C237.013 260.063 236.36 260.096 235.731 260.151C235.102 260.207 234.449 260.286 233.821 260.389C233.285 260.466 232.744 260.171 232.596 259.636C229.465 249.622 223.181 241.029 214.903 235.033Z" fill="#142D88"/>
<path d="M186.039 281.145C188.536 281.109 190.814 282.08 192.471 283.69C194.128 285.3 195.163 287.549 195.199 290.046C195.226 291.913 194.691 293.648 193.731 295.108C192.909 296.38 191.757 297.424 190.414 298.143L191.519 311.781C191.575 312.387 191.115 312.907 190.509 312.962C190.486 312.963 190.463 312.963 190.439 312.963L188.712 312.988L182.575 313.076C181.969 313.085 181.472 312.602 181.463 311.995C181.462 311.948 181.462 311.902 181.461 311.855L182.247 298.307C180.861 297.627 179.679 296.617 178.798 295.369C177.797 293.936 177.189 292.194 177.162 290.304C177.126 287.807 178.097 285.53 179.707 283.873C181.293 282.216 183.543 281.181 186.039 281.145ZM190.906 285.276C189.652 284.057 187.938 283.312 186.047 283.339C184.157 283.366 182.465 284.16 181.246 285.415C180.027 286.669 179.281 288.383 179.308 290.274C179.329 291.697 179.791 293.021 180.53 294.084C181.316 295.193 182.402 296.064 183.692 296.536C184.138 296.693 184.471 297.131 184.432 297.645L183.664 310.843L188.611 310.772L189.171 310.764L188.119 297.616C188.066 297.15 188.315 296.656 188.779 296.463C190.032 295.932 191.093 295.029 191.847 293.898C192.555 292.815 192.979 291.478 192.959 290.078C192.955 288.188 192.161 286.495 190.906 285.276ZM181.437 311.832C181.5 311.294 181.96 310.868 182.52 310.86L181.437 311.832Z" fill="#142D88"/>
<path d="M219.598 266.241C212.687 266.106 206.625 264.909 201.561 263.301C193.824 260.868 188.337 257.469 185.484 255.433C182.69 257.55 177.303 261.081 169.639 263.758C164.623 265.511 158.597 266.857 151.694 267.213C151.314 274.897 150.289 325.558 186.679 338.877C222.673 324.522 220.198 273.911 219.598 266.241ZM202.208 261.192C207.342 262.799 213.474 263.994 220.523 264.034C221.13 264.001 221.649 264.438 221.704 265.02C221.73 265.183 228.003 325.122 187.13 341.041L187.107 341.065C186.875 341.162 186.595 341.166 186.337 341.076C144.979 326.357 149.533 266.24 149.554 266.076C149.593 265.516 150.053 265.066 150.613 265.058C157.681 264.816 163.823 263.445 168.933 261.691C176.922 258.916 182.33 255.175 184.776 253.226C185.168 252.917 185.705 252.886 186.129 253.183C188.606 255.038 194.143 258.646 202.208 261.192Z" fill="#142D88"/>
<path d="M213.935 271.83C208.933 271.318 203.923 270.293 199.07 268.728C194.334 267.209 189.776 265.15 185.562 262.62C181.446 265.293 176.926 267.458 172.235 269.112C167.451 270.815 162.45 271.983 157.465 272.638C157.47 272.965 157.474 273.291 157.479 273.642C157.489 274.295 157.521 274.925 157.53 275.578C157.651 279.1 157.935 282.644 158.406 286.185C158.851 289.586 159.459 292.938 160.229 296.195C162.241 304.638 165.437 312.714 170.317 319.366C174.411 324.932 179.728 329.501 186.515 332.438C193.239 329.307 198.399 324.589 202.332 318.908C207.043 312.119 210.007 303.954 211.752 295.457C212.429 292.157 212.941 288.788 213.289 285.399C213.658 281.846 213.84 278.273 213.86 274.772C213.874 274.118 213.865 273.464 213.856 272.834C213.944 272.483 213.939 272.156 213.935 271.83ZM199.763 266.641C204.758 268.25 209.954 269.296 215.118 269.736C215.679 269.774 216.106 270.235 216.114 270.818C216.124 271.495 216.134 272.172 216.143 272.825C216.153 273.502 216.139 274.155 216.148 274.785C216.129 278.403 215.925 282.047 215.579 285.623C215.232 289.059 214.698 292.521 213.999 295.915C212.188 304.693 209.111 313.139 204.241 320.188C200.011 326.316 194.412 331.368 187.06 334.671C186.805 334.791 186.479 334.796 186.197 334.683C178.778 331.592 173.036 326.679 168.609 320.698C163.516 313.792 160.222 305.437 158.16 296.714C157.365 293.342 156.732 289.896 156.286 286.472C155.814 282.884 155.529 279.271 155.408 275.655C155.375 275.025 155.366 274.372 155.356 273.695C155.347 273.042 155.337 272.388 155.328 271.735C155.296 271.152 155.733 270.656 156.315 270.601C161.442 270.014 166.606 268.82 171.576 267.068C176.313 265.39 180.856 263.178 184.994 260.434C185.341 260.196 185.807 260.166 186.208 260.417C190.352 262.995 194.956 265.076 199.763 266.641Z" fill="#142D88"/>
<path d="M111.473 195.017C110.964 195.374 110.286 195.244 109.928 194.735C109.571 194.227 109.701 193.548 110.21 193.191C117.443 188.163 125.2 183.827 133.388 180.302C141.414 176.827 149.871 174.138 158.643 172.286C159.248 172.16 159.814 172.549 159.939 173.154C160.065 173.759 159.676 174.325 159.094 174.45C150.484 176.253 142.167 178.916 134.28 182.32C126.231 185.796 118.59 190.06 111.473 195.017ZM209.521 173.751C208.912 173.643 208.531 173.065 208.639 172.48C208.747 171.872 209.325 171.49 209.91 171.575C218.731 173.152 227.239 175.621 235.384 178.866C243.67 182.155 251.547 186.266 258.922 191.085C259.44 191.428 259.566 192.103 259.247 192.621C258.904 193.139 258.229 193.266 257.711 192.946C250.455 188.196 242.695 184.176 234.55 180.931C226.568 177.708 218.179 175.308 209.521 173.751ZM293.877 228.068C293.519 227.559 293.65 226.881 294.158 226.523C294.666 226.166 295.345 226.296 295.702 226.805C300.731 234.038 305.066 241.818 308.591 250.006C312.067 258.032 314.755 266.489 316.585 275.262C316.71 275.867 316.321 276.432 315.74 276.557C315.135 276.683 314.569 276.294 314.444 275.689C312.64 267.079 309.977 258.762 306.573 250.852C303.074 242.827 298.81 235.186 293.877 228.068ZM315.12 326.162C315.228 325.554 315.806 325.172 316.39 325.257C316.999 325.365 317.38 325.943 317.272 326.528C315.695 335.35 313.226 343.881 310.005 352.002C306.716 360.288 302.604 368.189 297.785 375.563C297.443 376.082 296.768 376.208 296.25 375.889C295.731 375.546 295.605 374.871 295.924 374.353C300.652 367.097 304.695 359.337 307.939 351.192C311.163 343.21 313.563 334.82 315.12 326.162ZM260.826 410.541C261.335 410.184 262.013 410.314 262.371 410.823C262.728 411.331 262.598 412.01 262.089 412.367C254.856 417.395 247.1 421.731 238.911 425.255C230.886 428.731 222.429 431.419 213.656 433.272C213.051 433.398 212.485 433.009 212.36 432.404C212.235 431.799 212.623 431.233 213.205 431.108C221.815 429.304 230.132 426.641 238.019 423.238C246.068 419.761 253.709 415.498 260.826 410.541ZM162.778 431.807C163.387 431.915 163.769 432.493 163.66 433.078C163.552 433.663 162.974 434.068 162.39 433.983C153.568 432.405 145.06 429.936 136.915 426.692C128.629 423.403 120.752 419.292 113.378 414.473C112.859 414.13 112.733 413.455 113.052 412.937C113.395 412.418 114.07 412.292 114.588 412.611C121.844 417.362 129.604 421.382 137.749 424.626C145.754 427.849 154.121 430.25 162.778 431.807ZM78.4457 377.49C78.803 377.998 78.6727 378.677 78.1644 379.034C77.656 379.391 76.9773 379.261 76.6199 378.753C71.5918 371.52 67.2563 363.763 63.7312 355.551C60.2554 347.526 57.567 339.069 55.7376 330.296C55.6123 329.691 56.001 329.125 56.5827 329C57.1877 328.875 57.7534 329.263 57.8788 329.868C59.6824 338.478 62.3455 346.795 65.7496 354.705C69.2487 362.731 73.4892 370.372 78.4457 377.49ZM57.1795 279.395C57.0715 280.004 56.4935 280.385 55.9088 280.3C55.3005 280.192 54.9187 279.614 55.0271 279.029C56.6046 270.208 59.0731 261.677 62.2944 253.555C65.5833 245.27 69.6946 237.369 74.5137 229.995C74.8564 229.476 75.5314 229.35 76.0494 229.669C76.5678 230.012 76.6942 230.687 76.3748 231.205C71.6474 238.461 67.6041 246.221 64.3599 254.366C61.1599 262.347 58.736 270.738 57.1795 279.395Z" fill="#142D88"/>
<path d="M171.792 164.792L196.55 164.438C197.32 164.426 198.025 164.743 198.546 165.226C199.066 165.732 199.38 166.428 199.391 167.198L199.63 183.952C199.642 184.722 199.325 185.427 198.842 185.947C198.336 186.468 197.64 186.781 196.87 186.792L172.112 187.146C171.342 187.157 170.638 186.841 170.117 186.358C169.597 185.852 169.283 185.156 169.272 184.386L169.032 167.632C169.021 166.862 169.338 166.157 169.821 165.637C170.327 165.116 171.022 164.803 171.792 164.792ZM196.582 166.631L171.824 166.985C171.66 166.988 171.498 167.06 171.406 167.178C171.291 167.296 171.223 167.437 171.226 167.601L171.466 184.355C171.468 184.518 171.54 184.681 171.658 184.772C171.777 184.887 171.918 184.955 172.081 184.953L196.839 184.599C197.002 184.596 197.165 184.524 197.256 184.406C197.371 184.288 197.439 184.147 197.437 183.983L197.197 167.229C197.195 167.066 197.123 166.903 197.004 166.812C196.909 166.696 196.745 166.629 196.582 166.631Z" fill="#142D88"/>
<path d="M191.696 156.268L176.435 156.487C175.828 156.495 175.272 156.76 174.858 157.163C174.467 157.565 174.218 158.152 174.227 158.759L174.313 164.733L194.054 164.45L193.968 158.476C193.959 157.87 193.695 157.313 193.292 156.899C192.866 156.508 192.303 156.26 191.696 156.268ZM176.403 154.27L191.664 154.051C192.901 154.034 194.005 154.508 194.833 155.313C195.661 156.118 196.167 157.208 196.185 158.445L196.286 165.538C196.295 166.145 195.812 166.642 195.205 166.651L173.247 166.965C172.641 166.974 172.144 166.491 172.135 165.884L172.034 158.79C172.016 157.554 172.49 156.45 173.295 155.621C174.077 154.817 175.167 154.288 176.403 154.27Z" fill="#142D88"/>
<path d="M173.151 161.832C172.544 161.84 172.047 161.357 172.038 160.751C172.029 160.144 172.512 159.647 173.119 159.638L195.077 159.324C195.684 159.315 196.181 159.798 196.19 160.405C196.198 161.012 195.715 161.509 195.108 161.517L173.151 161.832Z" fill="#142D88"/>
<path d="M186.975 172.183C186.965 171.483 186.677 170.88 186.227 170.42C185.777 169.983 185.143 169.712 184.443 169.722C183.743 169.732 183.14 170.021 182.68 170.471C182.243 170.921 181.972 171.555 181.982 172.255C181.989 172.768 182.159 173.256 182.422 173.649C182.708 174.065 183.109 174.386 183.579 174.566C183.813 174.656 183.957 174.887 183.937 175.121L183.657 180.073L185.431 180.047L185.501 180.046L185.103 175.104C185.077 174.871 185.237 174.635 185.446 174.562C185.91 174.369 186.302 174.037 186.576 173.613C186.826 173.189 186.983 172.696 186.975 172.183ZM186.986 169.639C187.648 170.283 188.058 171.187 188.072 172.167C188.083 172.914 187.859 173.594 187.494 174.183C187.174 174.678 186.737 175.081 186.251 175.368L186.674 180.496C186.675 180.52 186.675 180.543 186.675 180.566C186.68 180.87 186.427 181.13 186.123 181.134L185.447 181.144L183.09 181.178H183.043C182.739 181.159 182.502 180.906 182.521 180.602L182.821 175.44C182.303 175.167 181.854 174.777 181.521 174.315C181.116 173.737 180.873 173.041 180.862 172.294C180.848 171.291 181.232 170.398 181.876 169.735C182.52 169.073 183.424 168.663 184.404 168.649C185.407 168.611 186.323 168.995 186.986 169.639Z" fill="#142D88"/>
<path d="M280.93 383.343C282.89 383.315 284.72 383.942 286.182 384.995C287.455 385.91 288.477 387.179 289.105 388.664C290.435 388.668 291.68 389.211 292.579 390.061C293.313 390.751 293.862 391.653 294.11 392.677C295.515 392.983 296.763 393.712 297.711 394.726C298.848 395.946 299.548 397.57 299.574 399.344C299.601 401.257 298.856 402.995 297.614 404.273C296.372 405.551 294.656 406.346 292.743 406.373L269.431 406.707C267.518 406.734 265.78 405.989 264.502 404.747C263.224 403.505 262.429 401.789 262.402 399.876C262.376 398.079 263.052 396.412 264.155 395.183C265.097 394.142 266.323 393.378 267.742 393.054C267.961 392.024 268.462 391.13 269.198 390.419C270.119 389.519 271.371 388.941 272.771 388.921C272.818 388.921 272.864 388.92 272.911 388.919C273.497 387.44 274.459 386.166 275.705 385.192C277.159 384.05 278.97 383.371 280.93 383.343ZM284.9 386.787C283.792 385.986 282.431 385.515 280.961 385.536C279.491 385.557 278.122 386.067 277.06 386.899C275.952 387.755 275.129 388.957 274.752 390.363C274.597 390.926 274.042 391.284 273.48 391.152C273.363 391.13 273.246 391.108 273.152 391.11C273.059 391.111 272.942 391.089 272.825 391.091C272.009 391.103 271.29 391.44 270.761 391.961C270.231 392.482 269.914 393.163 269.855 393.934C269.864 394.518 269.451 395.014 268.868 395.069C267.656 395.179 266.591 395.778 265.833 396.629C265.075 397.48 264.624 398.607 264.642 399.844C264.661 401.15 265.214 402.309 266.066 403.161C266.942 404.012 268.116 404.509 269.423 404.49L292.734 404.156C294.041 404.137 295.2 403.584 296.051 402.732C296.902 401.856 297.399 400.682 297.38 399.375C297.363 398.162 296.88 397.048 296.122 396.219C295.339 395.39 294.281 394.845 293.089 394.722C292.552 394.683 292.102 394.246 292.071 393.686C292.013 392.894 291.676 392.175 291.108 391.669C290.564 391.164 289.836 390.847 289.02 390.859C288.926 390.86 288.856 390.861 288.786 390.862C288.716 390.863 288.647 390.888 288.553 390.889C288.018 390.967 287.477 390.671 287.329 390.136C286.889 388.766 286.032 387.611 284.9 386.787Z" fill="#142D88"/>
<path d="M77.498 197.16C81.2241 193.325 86.144 191.365 91.0909 191.294C96.0378 191.223 101.011 193.042 104.846 196.768C108.68 200.494 110.641 205.414 110.712 210.361C110.783 215.308 108.963 220.282 105.237 224.116C101.511 227.951 96.5917 229.912 91.6448 229.982C86.6978 230.053 81.7238 228.234 77.8895 224.508C74.0552 220.782 72.0942 215.862 72.0234 210.915C71.9759 205.968 73.7949 200.97 77.498 197.16ZM91.1223 193.487C86.7354 193.55 82.3725 195.293 79.0835 198.678C75.7944 202.062 74.1771 206.473 74.2399 210.86C74.3027 215.247 76.0456 219.61 79.4302 222.899C82.8148 226.188 87.2258 227.805 91.6127 227.742C95.9996 227.68 100.362 225.937 103.651 222.552C106.94 219.167 108.558 214.756 108.495 210.37C108.432 205.983 106.689 201.62 103.304 198.331C99.9202 195.042 95.5092 193.424 91.1223 193.487Z" fill="#142D88"/>
<path d="M79.8402 210.757C79.1068 210.067 79.0667 208.9 79.7564 208.167C80.4461 207.434 81.6125 207.394 82.3459 208.083L88.7801 214.083L99.5044 203.473C100.217 202.763 101.384 202.769 102.095 203.483C102.805 204.196 102.799 205.363 102.085 206.074L90.119 217.938C89.4286 218.625 88.3087 218.641 87.5756 217.974L79.8402 210.757Z" fill="#142D88"/>
<path d="M197.627 433.618L178.422 433.893L178.622 447.871C178.626 448.151 178.746 448.382 178.912 448.567C179.102 448.751 179.337 448.841 179.617 448.837L196.837 448.59C197.118 448.586 197.349 448.466 197.534 448.3C197.557 448.276 197.557 448.276 197.58 448.253C197.741 448.087 197.831 447.852 197.827 447.596L197.627 433.618ZM177.294 431.692L198.692 431.386C199.298 431.377 199.795 431.86 199.804 432.467L200.02 447.541C200.032 448.381 199.716 449.156 199.188 449.723C199.165 449.747 199.142 449.771 199.119 449.794C198.544 450.386 197.755 450.747 196.869 450.76L179.648 451.007C178.761 451.019 177.962 450.681 177.371 450.106C176.779 449.531 176.418 448.742 176.405 447.856L176.189 432.782C176.204 432.198 176.687 431.701 177.294 431.692Z" fill="#142D88"/>
<path d="M187.172 422.331L188.572 422.311C190.042 422.29 191.381 422.878 192.375 423.821C193.345 424.787 193.971 426.108 193.992 427.578L194.048 431.452L195.121 431.437L195.066 427.563C195.04 425.79 194.294 424.213 193.111 423.063C191.927 421.913 190.33 421.213 188.557 421.238L187.157 421.258C185.406 421.283 183.807 422.03 182.657 423.213C181.507 424.396 180.806 426.017 180.831 427.767L180.887 431.64L181.96 431.625L181.905 427.752C181.884 426.281 182.471 424.943 183.414 423.949C184.357 422.955 185.702 422.352 187.172 422.331ZM188.603 424.505L187.203 424.525C186.34 424.537 185.552 424.899 185 425.49C184.448 426.058 184.086 426.857 184.098 427.72L184.17 432.714C184.178 433.32 183.695 433.817 183.089 433.826L179.822 433.873C179.215 433.882 178.718 433.399 178.709 432.792L178.638 427.798C178.604 425.418 179.553 423.257 181.071 421.672C182.612 420.086 184.745 419.099 187.125 419.065L188.525 419.045C190.905 419.01 193.066 419.96 194.652 421.477C196.237 423.019 197.225 425.152 197.259 427.532L197.33 432.525C197.339 433.132 196.856 433.629 196.249 433.638L192.983 433.685C192.376 433.693 191.879 433.21 191.87 432.603L191.799 427.61C191.786 426.747 191.425 425.958 190.834 425.406C190.242 424.831 189.467 424.492 188.603 424.505Z" fill="#142D88"/>
<path d="M189.117 445.76L188.72 440.817C188.693 440.584 188.853 440.349 189.062 440.276C189.526 440.082 189.918 439.75 190.192 439.326C190.443 438.926 190.599 438.433 190.592 437.92C190.582 437.22 190.293 436.617 189.843 436.157C189.393 435.72 188.759 435.449 188.059 435.459C187.359 435.469 186.757 435.758 186.296 436.208C185.859 436.657 185.588 437.291 185.598 437.991C185.606 438.505 185.776 438.992 186.038 439.385C186.324 439.802 186.726 440.123 187.195 440.303C187.43 440.393 187.573 440.624 187.553 440.858L187.274 445.809L189.047 445.784L189.117 445.783V445.76ZM189.867 441.081L190.29 446.21C190.291 446.233 190.291 446.256 190.291 446.28C190.296 446.583 190.043 446.843 189.739 446.848L189.063 446.857L186.706 446.891L186.659 446.892C186.356 446.873 186.119 446.62 186.138 446.316L186.437 441.154C185.92 440.881 185.471 440.491 185.137 440.029C184.732 439.451 184.489 438.754 184.478 438.007C184.464 437.004 184.848 436.112 185.492 435.449C186.136 434.786 187.04 434.377 188.02 434.362C189.024 434.348 189.916 434.732 190.579 435.376C191.242 436.02 191.651 436.925 191.665 437.905C191.676 438.651 191.452 439.331 191.087 439.92C190.791 440.391 190.353 440.817 189.867 441.081Z" fill="#142D88"/>
<path d="M42.7611 320.515L65.7457 320.186C65.7427 319.976 65.7631 319.766 65.7597 319.533C65.7076 315.892 64.3538 312.621 62.2196 310.271C60.1094 307.967 57.2185 306.562 54.0683 306.607C50.9182 306.652 48.0687 308.14 46.0253 310.503C43.9593 312.913 42.6996 316.222 42.7518 319.862C42.7318 320.096 42.7348 320.306 42.7611 320.515ZM66.7809 322.389L41.7661 322.747C41.2061 322.755 40.7334 322.342 40.6554 321.783C40.6277 321.48 40.6 321.177 40.5723 320.873L40.572 320.85C40.5437 320.5 40.5393 320.197 40.535 319.894C40.4748 315.694 41.9371 311.868 44.3475 309.056C46.7809 306.221 50.2097 304.445 54.0133 304.39C57.8168 304.336 61.2951 306.013 63.8086 308.778C66.2982 311.496 67.8697 315.301 67.9298 319.502C67.9338 319.782 67.9385 320.108 67.9202 320.459C67.9012 320.762 67.8819 321.043 67.8625 321.323C67.8476 321.907 67.3642 322.38 66.7809 322.389Z" fill="#142D88"/>
<path d="M53.7599 286.773C56.1167 286.739 58.2538 287.665 59.8393 289.183C61.4015 290.701 62.3889 292.834 62.4226 295.191C62.4564 297.548 61.5301 299.685 60.0124 301.27C58.4943 302.832 56.3612 303.82 54.0044 303.854C51.6476 303.887 49.5105 302.961 47.925 301.443C46.3629 299.925 45.3754 297.792 45.3417 295.435C45.308 293.079 46.2343 290.941 47.752 289.356C49.2934 287.793 51.4031 286.806 53.7599 286.773ZM58.2983 290.769C57.1385 289.642 55.5417 288.964 53.7916 288.989C52.0415 289.014 50.4648 289.737 49.3378 290.897C48.2107 292.057 47.5334 293.654 47.5585 295.404C47.5835 297.154 48.3063 298.73 49.466 299.857C50.6258 300.984 52.2226 301.662 53.9727 301.637C55.7228 301.612 57.2995 300.889 58.4266 299.729C59.5536 298.569 60.2309 296.973 60.2059 295.223C60.1808 293.472 59.4584 291.919 58.2983 290.769Z" fill="#142D88"/>
<path d="M318.192 294.68C319.895 294.656 321.469 295.334 322.605 296.438C323.741 297.542 324.464 299.095 324.488 300.798C324.512 302.502 323.835 304.075 322.731 305.211C321.627 306.347 320.073 307.07 318.37 307.094C316.666 307.119 315.093 306.441 313.957 305.337C312.821 304.233 312.098 302.68 312.074 300.976C312.05 299.273 312.727 297.699 313.831 296.563C314.935 295.427 316.489 294.705 318.192 294.68ZM321.087 298.023C320.354 297.31 319.344 296.881 318.247 296.897C317.15 296.912 316.153 297.37 315.44 298.104C314.727 298.838 314.298 299.847 314.314 300.944C314.33 302.041 314.787 303.038 315.521 303.751C316.255 304.464 317.265 304.893 318.361 304.877C319.458 304.861 320.455 304.404 321.168 303.67C321.881 302.936 322.31 301.927 322.294 300.83C322.279 299.733 321.821 298.736 321.087 298.023ZM322.649 291.326C322.508 291.258 322.343 291.19 322.156 291.123C322.132 291.123 322.132 291.1 322.109 291.1C321.944 291.032 321.803 290.988 321.639 290.92C321.264 290.785 321.003 290.486 320.904 290.114L320.157 286.81L315.98 286.87L315.327 290.193C315.263 290.591 314.987 290.898 314.639 291.02C314.453 291.093 314.291 291.165 314.105 291.238C313.896 291.334 313.734 291.407 313.595 291.479C313.247 291.647 312.827 291.63 312.521 291.424L309.647 289.621L306.749 292.603L308.634 295.424C308.872 295.771 308.878 296.191 308.696 296.543C308.628 296.684 308.561 296.849 308.493 297.036C308.426 297.201 308.358 297.388 308.291 297.576C308.157 297.975 307.834 298.236 307.438 298.312L304.181 299.035L304.241 303.212L307.564 303.865C307.962 303.929 308.269 304.205 308.391 304.576C308.464 304.762 308.536 304.948 308.609 305.11C308.705 305.319 308.778 305.481 308.85 305.62C309.018 305.968 309.001 306.388 308.795 306.694L306.992 309.568L309.974 312.466L312.795 310.582C313.142 310.343 313.562 310.337 313.914 310.519C314.055 310.587 314.22 310.655 314.407 310.722C314.595 310.789 314.783 310.857 314.924 310.925C315.299 311.059 315.56 311.359 315.659 311.731L316.406 315.034L320.583 314.975L321.236 311.651C321.323 311.253 321.599 310.946 321.971 310.824C322.133 310.751 322.296 310.702 322.458 310.63C322.667 310.534 322.829 310.461 322.968 310.389C323.316 310.221 323.736 310.238 324.043 310.444L326.916 312.247L329.814 309.264L327.93 306.444C327.691 306.097 327.685 305.677 327.867 305.325C327.935 305.184 328.003 305.019 328.07 304.831C328.138 304.667 328.205 304.479 328.272 304.292C328.407 303.893 328.73 303.632 329.125 303.556L332.382 302.833L332.323 298.656L328.999 298.003C328.601 297.939 328.294 297.663 328.172 297.291C328.099 297.106 328.027 296.943 327.954 296.758C327.858 296.549 327.786 296.387 327.714 296.248C327.545 295.9 327.563 295.48 327.768 295.173L329.571 292.3L326.589 289.402L323.768 291.286C323.421 291.478 323.001 291.484 322.649 291.326ZM322.989 289.057L323.037 289.079L326.065 287.052C326.481 286.743 327.088 286.781 327.467 287.149L327.916 287.586C327.94 287.609 327.964 287.632 327.987 287.632L331.206 290.76L331.727 291.266C332.082 291.611 332.183 292.193 331.886 292.64L329.924 295.749L329.948 295.796L329.972 295.842L333.506 296.538C334.044 296.601 334.47 297.061 334.478 297.621L334.489 298.345L334.553 302.848L334.564 303.572C334.571 304.085 334.228 304.557 333.692 304.658L330.109 305.456L330.087 305.503L330.064 305.55L332.067 308.532C332.4 308.971 332.386 309.578 331.995 309.98L331.489 310.501L328.361 313.72L327.855 314.24C327.51 314.619 326.927 314.697 326.48 314.4L323.371 312.437L323.325 312.461L323.278 312.485L322.582 316.02C322.52 316.557 322.059 316.984 321.499 316.992L320.776 317.002L316.272 317.067L315.549 317.077C315.035 317.085 314.564 316.741 314.462 316.206L313.664 312.623L313.617 312.6L313.57 312.578L310.542 314.605C310.126 314.914 309.519 314.876 309.14 314.508L308.69 314.071C308.667 314.048 308.643 314.025 308.62 314.026L305.401 310.897L304.88 310.391C304.525 310.046 304.447 309.464 304.72 309.017L306.683 305.908L306.659 305.862L306.635 305.815L303.101 305.119C302.563 305.057 302.136 304.596 302.128 304.036L302.118 303.313L302.054 298.809L302.043 298.086C302.036 297.572 302.379 297.101 302.915 296.999L306.497 296.201L306.52 296.154L306.543 296.107L304.516 293.079C304.206 292.663 304.244 292.056 304.612 291.677L305.072 291.204C305.095 291.18 305.118 291.156 305.118 291.133L308.246 287.914L308.752 287.393C309.097 287.015 309.679 286.937 310.127 287.234L313.236 289.196L313.282 289.172L313.328 289.148L314.025 285.614C314.087 285.077 314.548 284.65 315.108 284.642L315.831 284.631L320.335 284.567L321.058 284.557C321.571 284.549 322.043 284.893 322.144 285.428L322.942 289.011C322.943 289.057 322.966 289.057 322.989 289.057Z" fill="#142D88"/>
<path d="M85.7421 406.139C83.3752 403.839 82.1647 400.799 82.1213 397.766C82.0775 394.709 83.2009 391.659 85.501 389.292C87.8011 386.925 90.8178 385.715 93.8746 385.671C96.9314 385.627 99.9816 386.751 102.348 389.051C104.715 391.351 105.925 394.391 105.969 397.424C106.013 400.481 104.889 403.531 102.589 405.898C100.289 408.265 97.2728 409.475 94.216 409.519C91.1825 409.562 88.109 408.439 85.7421 406.139ZM87.2835 404.577C89.2006 406.44 91.7111 407.361 94.1846 407.325C96.6581 407.29 99.1412 406.298 101.004 404.38C102.867 402.463 103.788 399.953 103.752 397.479C103.717 394.982 102.725 392.523 100.807 390.66C98.8906 388.797 96.3802 387.876 93.9068 387.911C91.4333 387.946 88.9501 388.939 87.087 390.856C85.224 392.773 84.303 395.284 84.3384 397.757C84.3738 400.231 85.366 402.69 87.2835 404.577Z" fill="#142D88"/>
<path d="M269.951 216.507C267.584 214.207 266.373 211.167 266.33 208.133C266.286 205.076 267.409 202.026 269.709 199.659C272.01 197.293 275.026 196.082 278.083 196.039C281.14 195.995 284.19 197.118 286.557 199.418C288.924 201.718 290.134 204.758 290.178 207.792C290.222 210.849 289.098 213.899 286.798 216.266C284.498 218.633 281.481 219.843 278.425 219.887C275.368 219.93 272.294 218.807 269.951 216.507ZM271.492 214.921C273.409 216.784 275.919 217.705 278.393 217.67C280.866 217.634 283.349 216.642 285.212 214.725C287.076 212.808 287.996 210.297 287.961 207.824C287.925 205.327 286.933 202.867 285.016 201.004C283.099 199.141 280.588 198.22 278.115 198.255C275.641 198.291 273.158 199.283 271.295 201.2C269.432 203.118 268.511 205.628 268.547 208.102C268.582 210.575 269.551 213.058 271.492 214.921Z" fill="#142D88"/>
<path fill-rule="evenodd" clip-rule="evenodd" d="M186.069 283.338C184.179 283.365 182.487 284.16 181.268 285.414C180.049 286.669 179.303 288.383 179.33 290.273C179.351 291.697 179.813 293.02 180.552 294.083C181.338 295.192 182.424 296.064 183.714 296.535C184.16 296.692 184.493 297.131 184.454 297.645L183.686 310.843L188.633 310.772L189.193 310.764L188.141 297.616C188.088 297.15 188.337 296.656 188.801 296.463C190.054 295.931 191.115 295.029 191.869 293.898C192.577 292.814 193.001 291.478 192.981 290.078C192.954 288.188 192.16 286.495 190.905 285.276C189.674 284.057 187.936 283.312 186.069 283.338Z" fill="#FDF5EF"/>
</g>
<defs>
<radialGradient id="paint0_radial_118_1072" cx="0" cy="0" r="1" gradientUnits="userSpaceOnUse" gradientTransform="translate(327.529 22.3945) scale(3.37076 3.64159)">
<stop stop-color="white"/>
<stop offset="0.06" stop-color="#DFDFDF"/>
<stop offset="0.16" stop-color="#ABABAB"/>
<stop offset="0.26" stop-color="#7E7E7E"/>
<stop offset="0.37" stop-color="#575757"/>
<stop offset="0.48" stop-color="#373737"/>
<stop offset="0.59" stop-color="#1F1F1F"/>
<stop offset="0.71" stop-color="#0E0E0E"/>
<stop offset="0.84" stop-color="#030303"/>
<stop offset="1"/>
</radialGradient>
<radialGradient id="paint1_radial_118_1072" cx="0" cy="0" r="1" gradientUnits="userSpaceOnUse" gradientTransform="translate(319.593 1.82505) scale(3.76521 4.06773)">
<stop stop-color="white"/>
<stop offset="0.06" stop-color="#DFDFDF"/>
<stop offset="0.16" stop-color="#ABABAB"/>
<stop offset="0.26" stop-color="#7E7E7E"/>
<stop offset="0.37" stop-color="#575757"/>
<stop offset="0.48" stop-color="#373737"/>
<stop offset="0.59" stop-color="#1F1F1F"/>
<stop offset="0.71" stop-color="#0E0E0E"/>
<stop offset="0.84" stop-color="#030303"/>
<stop offset="1"/>
</radialGradient>
<radialGradient id="paint2_radial_118_1072" cx="0" cy="0" r="1" gradientUnits="userSpaceOnUse" gradientTransform="translate(252.572 66.0951) scale(4.15965 4.49387)">
<stop stop-color="white"/>
<stop offset="0.06" stop-color="#DFDFDF"/>
<stop offset="0.16" stop-color="#ABABAB"/>
<stop offset="0.26" stop-color="#7E7E7E"/>
<stop offset="0.37" stop-color="#575757"/>
<stop offset="0.48" stop-color="#373737"/>
<stop offset="0.59" stop-color="#1F1F1F"/>
<stop offset="0.71" stop-color="#0E0E0E"/>
<stop offset="0.84" stop-color="#030303"/>
<stop offset="1"/>
</radialGradient>
<radialGradient id="paint3_radial_118_1072" cx="0" cy="0" r="1" gradientUnits="userSpaceOnUse" gradientTransform="translate(301.747 107.647) scale(2.9763 3.21545)">
<stop stop-color="white"/>
<stop offset="0.06" stop-color="#DFDFDF"/>
<stop offset="0.16" stop-color="#ABABAB"/>
<stop offset="0.26" stop-color="#7E7E7E"/>
<stop offset="0.37" stop-color="#575757"/>
<stop offset="0.48" stop-color="#373737"/>
<stop offset="0.59" stop-color="#1F1F1F"/>
<stop offset="0.71" stop-color="#0E0E0E"/>
<stop offset="0.84" stop-color="#030303"/>
<stop offset="1"/>
</radialGradient>
<radialGradient id="paint4_radial_118_1072" cx="0" cy="0" r="1" gradientUnits="userSpaceOnUse" gradientTransform="translate(173.715 106.689) scale(3.96841 4.28726)">
<stop stop-color="white"/>
<stop offset="0.06" stop-color="#DFDFDF"/>
<stop offset="0.16" stop-color="#ABABAB"/>
<stop offset="0.26" stop-color="#7E7E7E"/>
<stop offset="0.37" stop-color="#575757"/>
<stop offset="0.48" stop-color="#373737"/>
<stop offset="0.59" stop-color="#1F1F1F"/>
<stop offset="0.71" stop-color="#0E0E0E"/>
<stop offset="0.84" stop-color="#030303"/>
<stop offset="1"/>
</radialGradient>
<radialGradient id="paint5_radial_118_1072" cx="0" cy="0" r="1" gradientUnits="userSpaceOnUse" gradientTransform="translate(174.041 106.369) scale(4.15965 4.49388)">
<stop stop-color="white"/>
<stop offset="0.06" stop-color="#DFDFDF"/>
<stop offset="0.16" stop-color="#ABABAB"/>
<stop offset="0.26" stop-color="#7E7E7E"/>
<stop offset="0.37" stop-color="#575757"/>
<stop offset="0.48" stop-color="#373737"/>
<stop offset="0.59" stop-color="#1F1F1F"/>
<stop offset="0.71" stop-color="#0E0E0E"/>
<stop offset="0.84" stop-color="#030303"/>
<stop offset="1"/>
</radialGradient>
<radialGradient id="paint6_radial_118_1072" cx="0" cy="0" r="1" gradientUnits="userSpaceOnUse" gradientTransform="translate(142.915 149.863) scale(3.16755 3.42206)">
<stop stop-color="white"/>
<stop offset="0.06" stop-color="#DFDFDF"/>
<stop offset="0.16" stop-color="#ABABAB"/>
<stop offset="0.26" stop-color="#7E7E7E"/>
<stop offset="0.37" stop-color="#575757"/>
<stop offset="0.48" stop-color="#373737"/>
<stop offset="0.59" stop-color="#1F1F1F"/>
<stop offset="0.71" stop-color="#0E0E0E"/>
<stop offset="0.84" stop-color="#030303"/>
<stop offset="1"/>
</radialGradient>
<radialGradient id="paint7_radial_118_1072" cx="0" cy="0" r="1" gradientUnits="userSpaceOnUse" gradientTransform="translate(243.249 218.408) scale(3.9684 4.28728)">
<stop stop-color="white"/>
<stop offset="0.06" stop-color="#DFDFDF"/>
<stop offset="0.16" stop-color="#ABABAB"/>
<stop offset="0.26" stop-color="#7E7E7E"/>
<stop offset="0.37" stop-color="#575757"/>
<stop offset="0.48" stop-color="#373737"/>
<stop offset="0.59" stop-color="#1F1F1F"/>
<stop offset="0.71" stop-color="#0E0E0E"/>
<stop offset="0.84" stop-color="#030303"/>
<stop offset="1"/>
</radialGradient>
<radialGradient id="paint8_radial_118_1072" cx="0" cy="0" r="1" gradientUnits="userSpaceOnUse" gradientTransform="translate(287.272 445.929) scale(5.95262 6.43089)">
<stop stop-color="white"/>
<stop offset="0.06" stop-color="#DFDFDF"/>
<stop offset="0.16" stop-color="#ABABAB"/>
<stop offset="0.26" stop-color="#7E7E7E"/>
<stop offset="0.37" stop-color="#575757"/>
<stop offset="0.48" stop-color="#373737"/>
<stop offset="0.59" stop-color="#1F1F1F"/>
<stop offset="0.71" stop-color="#0E0E0E"/>
<stop offset="0.84" stop-color="#030303"/>
<stop offset="1"/>
</radialGradient>
<radialGradient id="paint9_radial_118_1072" cx="0" cy="0" r="1" gradientUnits="userSpaceOnUse" gradientTransform="translate(355.883 491.775) scale(5.55816 6.00476)">
<stop stop-color="white"/>
<stop offset="0.06" stop-color="#DFDFDF"/>
<stop offset="0.16" stop-color="#ABABAB"/>
<stop offset="0.26" stop-color="#7E7E7E"/>
<stop offset="0.37" stop-color="#575757"/>
<stop offset="0.48" stop-color="#373737"/>
<stop offset="0.59" stop-color="#1F1F1F"/>
<stop offset="0.71" stop-color="#0E0E0E"/>
<stop offset="0.84" stop-color="#030303"/>
<stop offset="1"/>
</radialGradient>
<radialGradient id="paint10_radial_118_1072" cx="0" cy="0" r="1" gradientUnits="userSpaceOnUse" gradientTransform="translate(363.424 432.213) scale(4.36285 4.7134)">
<stop stop-color="white"/>
<stop offset="0.06" stop-color="#DFDFDF"/>
<stop offset="0.16" stop-color="#ABABAB"/>
<stop offset="0.26" stop-color="#7E7E7E"/>
<stop offset="0.37" stop-color="#575757"/>
<stop offset="0.48" stop-color="#373737"/>
<stop offset="0.59" stop-color="#1F1F1F"/>
<stop offset="0.71" stop-color="#0E0E0E"/>
<stop offset="0.84" stop-color="#030303"/>
<stop offset="1"/>
</radialGradient>
<radialGradient id="paint11_radial_118_1072" cx="0" cy="0" r="1" gradientUnits="userSpaceOnUse" gradientTransform="translate(236.113 424.933) scale(3.16755 3.42207)">
<stop stop-color="white"/>
<stop offset="0.06" stop-color="#DFDFDF"/>
<stop offset="0.16" stop-color="#ABABAB"/>
<stop offset="0.26" stop-color="#7E7E7E"/>
<stop offset="0.37" stop-color="#575757"/>
<stop offset="0.48" stop-color="#373737"/>
<stop offset="0.59" stop-color="#1F1F1F"/>
<stop offset="0.71" stop-color="#0E0E0E"/>
<stop offset="0.84" stop-color="#030303"/>
<stop offset="1"/>
</radialGradient>
<radialGradient id="paint12_radial_118_1072" cx="0" cy="0" r="1" gradientUnits="userSpaceOnUse" gradientTransform="translate(167.896 365.8) scale(3.16755 3.42208)">
<stop stop-color="white"/>
<stop offset="0.06" stop-color="#DFDFDF"/>
<stop offset="0.16" stop-color="#ABABAB"/>
<stop offset="0.26" stop-color="#7E7E7E"/>
<stop offset="0.37" stop-color="#575757"/>
<stop offset="0.48" stop-color="#373737"/>
<stop offset="0.59" stop-color="#1F1F1F"/>
<stop offset="0.71" stop-color="#0E0E0E"/>
<stop offset="0.84" stop-color="#030303"/>
<stop offset="1"/>
</radialGradient>
<radialGradient id="paint13_radial_118_1072" cx="0" cy="0" r="1" gradientUnits="userSpaceOnUse" gradientTransform="translate(167.108 321.25) scale(1.58975 1.71749)">
<stop stop-color="white"/>
<stop offset="0.06" stop-color="#DFDFDF"/>
<stop offset="0.16" stop-color="#ABABAB"/>
<stop offset="0.26" stop-color="#7E7E7E"/>
<stop offset="0.37" stop-color="#575757"/>
<stop offset="0.48" stop-color="#373737"/>
<stop offset="0.59" stop-color="#1F1F1F"/>
<stop offset="0.71" stop-color="#0E0E0E"/>
<stop offset="0.84" stop-color="#030303"/>
<stop offset="1"/>
</radialGradient>
<radialGradient id="paint14_radial_118_1072" cx="0" cy="0" r="1" gradientUnits="userSpaceOnUse" gradientTransform="translate(187.333 295.966) scale(1.98421 2.14364)">
<stop stop-color="white"/>
<stop offset="0.06" stop-color="#DFDFDF"/>
<stop offset="0.16" stop-color="#ABABAB"/>
<stop offset="0.26" stop-color="#7E7E7E"/>
<stop offset="0.37" stop-color="#575757"/>
<stop offset="0.48" stop-color="#373737"/>
<stop offset="0.59" stop-color="#1F1F1F"/>
<stop offset="0.71" stop-color="#0E0E0E"/>
<stop offset="0.84" stop-color="#030303"/>
<stop offset="1"/>
</radialGradient>
<radialGradient id="paint15_radial_118_1072" cx="0" cy="0" r="1" gradientUnits="userSpaceOnUse" gradientTransform="translate(167.897 171.569) scale(1.85272 2.00158)">
<stop stop-color="white"/>
<stop offset="0.06" stop-color="#DFDFDF"/>
<stop offset="0.16" stop-color="#ABABAB"/>
<stop offset="0.26" stop-color="#7E7E7E"/>
<stop offset="0.37" stop-color="#575757"/>
<stop offset="0.48" stop-color="#373737"/>
<stop offset="0.59" stop-color="#1F1F1F"/>
<stop offset="0.71" stop-color="#0E0E0E"/>
<stop offset="0.84" stop-color="#030303"/>
<stop offset="1"/>
</radialGradient>
<radialGradient id="paint16_radial_118_1072" cx="0" cy="0" r="1" gradientUnits="userSpaceOnUse" gradientTransform="translate(172.128 194.416) scale(1.85272 2.00159)">
<stop stop-color="white"/>
<stop offset="0.06" stop-color="#DFDFDF"/>
<stop offset="0.16" stop-color="#ABABAB"/>
<stop offset="0.26" stop-color="#7E7E7E"/>
<stop offset="0.37" stop-color="#575757"/>
<stop offset="0.48" stop-color="#373737"/>
<stop offset="0.59" stop-color="#1F1F1F"/>
<stop offset="0.71" stop-color="#0E0E0E"/>
<stop offset="0.84" stop-color="#030303"/>
<stop offset="1"/>
</radialGradient>
<radialGradient id="paint17_radial_118_1072" cx="0" cy="0" r="1" gradientUnits="userSpaceOnUse" gradientTransform="translate(137.225 197.851) scale(2.37865 2.56977)">
<stop stop-color="white"/>
<stop offset="0.06" stop-color="#DFDFDF"/>
<stop offset="0.16" stop-color="#ABABAB"/>
<stop offset="0.26" stop-color="#7E7E7E"/>
<stop offset="0.37" stop-color="#575757"/>
<stop offset="0.48" stop-color="#373737"/>
<stop offset="0.59" stop-color="#1F1F1F"/>
<stop offset="0.71" stop-color="#0E0E0E"/>
<stop offset="0.84" stop-color="#030303"/>
<stop offset="1"/>
</radialGradient>
<radialGradient id="paint18_radial_118_1072" cx="0" cy="0" r="1" gradientUnits="userSpaceOnUse" gradientTransform="translate(240.87 193.277) scale(1.85273 2.00159)">
<stop stop-color="white"/>
<stop offset="0.06" stop-color="#DFDFDF"/>
<stop offset="0.16" stop-color="#ABABAB"/>
<stop offset="0.26" stop-color="#7E7E7E"/>
<stop offset="0.37" stop-color="#575757"/>
<stop offset="0.48" stop-color="#373737"/>
<stop offset="0.59" stop-color="#1F1F1F"/>
<stop offset="0.71" stop-color="#0E0E0E"/>
<stop offset="0.84" stop-color="#030303"/>
<stop offset="1"/>
</radialGradient>
<radialGradient id="paint19_radial_118_1072" cx="0" cy="0" r="1" gradientUnits="userSpaceOnUse" gradientTransform="translate(265.996 263.258) scale(3.70544 4.00318)">
<stop stop-color="white"/>
<stop offset="0.06" stop-color="#DFDFDF"/>
<stop offset="0.16" stop-color="#ABABAB"/>
<stop offset="0.26" stop-color="#7E7E7E"/>
<stop offset="0.37" stop-color="#575757"/>
<stop offset="0.48" stop-color="#373737"/>
<stop offset="0.59" stop-color="#1F1F1F"/>
<stop offset="0.71" stop-color="#0E0E0E"/>
<stop offset="0.84" stop-color="#030303"/>
<stop offset="1"/>
</radialGradient>
<radialGradient id="paint20_radial_118_1072" cx="0" cy="0" r="1" gradientUnits="userSpaceOnUse" gradientTransform="translate(21.3194 175.111) scale(3.44248 3.71908)">
<stop stop-color="white"/>
<stop offset="0.06" stop-color="#DFDFDF"/>
<stop offset="0.16" stop-color="#ABABAB"/>
<stop offset="0.26" stop-color="#7E7E7E"/>
<stop offset="0.37" stop-color="#575757"/>
<stop offset="0.48" stop-color="#373737"/>
<stop offset="0.59" stop-color="#1F1F1F"/>
<stop offset="0.71" stop-color="#0E0E0E"/>
<stop offset="0.84" stop-color="#030303"/>
<stop offset="1"/>
</radialGradient>
<radialGradient id="paint21_radial_118_1072" cx="0" cy="0" r="1" gradientUnits="userSpaceOnUse" gradientTransform="translate(18.4155 213.668) scale(2.64161 2.85387)">
<stop stop-color="white"/>
<stop offset="0.06" stop-color="#DFDFDF"/>
<stop offset="0.16" stop-color="#ABABAB"/>
<stop offset="0.26" stop-color="#7E7E7E"/>
<stop offset="0.37" stop-color="#575757"/>
<stop offset="0.48" stop-color="#373737"/>
<stop offset="0.59" stop-color="#1F1F1F"/>
<stop offset="0.71" stop-color="#0E0E0E"/>
<stop offset="0.84" stop-color="#030303"/>
<stop offset="1"/>
</radialGradient>
<radialGradient id="paint22_radial_118_1072" cx="0" cy="0" r="1" gradientUnits="userSpaceOnUse" gradientTransform="translate(328.127 379.516) scale(2.90459 3.13798)">
<stop stop-color="white"/>
<stop offset="0.06" stop-color="#DFDFDF"/>
<stop offset="0.16" stop-color="#ABABAB"/>
<stop offset="0.26" stop-color="#7E7E7E"/>
<stop offset="0.37" stop-color="#575757"/>
<stop offset="0.48" stop-color="#373737"/>
<stop offset="0.59" stop-color="#1F1F1F"/>
<stop offset="0.71" stop-color="#0E0E0E"/>
<stop offset="0.84" stop-color="#030303"/>
<stop offset="1"/>
</radialGradient>
<radialGradient id="paint23_radial_118_1072" cx="0" cy="0" r="1" gradientUnits="userSpaceOnUse" gradientTransform="translate(328.917 339.239) scale(3.16756 3.42205)">
<stop stop-color="white"/>
<stop offset="0.06" stop-color="#DFDFDF"/>
<stop offset="0.16" stop-color="#ABABAB"/>
<stop offset="0.26" stop-color="#7E7E7E"/>
<stop offset="0.37" stop-color="#575757"/>
<stop offset="0.48" stop-color="#373737"/>
<stop offset="0.59" stop-color="#1F1F1F"/>
<stop offset="0.71" stop-color="#0E0E0E"/>
<stop offset="0.84" stop-color="#030303"/>
<stop offset="1"/>
</radialGradient>
<radialGradient id="paint24_radial_118_1072" cx="0" cy="0" r="1" gradientUnits="userSpaceOnUse" gradientTransform="translate(53.8442 85.71) scale(2.64161 2.85387)">
<stop stop-color="white"/>
<stop offset="0.06" stop-color="#DFDFDF"/>
<stop offset="0.16" stop-color="#ABABAB"/>
<stop offset="0.26" stop-color="#7E7E7E"/>
<stop offset="0.37" stop-color="#575757"/>
<stop offset="0.48" stop-color="#373737"/>
<stop offset="0.59" stop-color="#1F1F1F"/>
<stop offset="0.71" stop-color="#0E0E0E"/>
<stop offset="0.84" stop-color="#030303"/>
<stop offset="1"/>
</radialGradient>
<radialGradient id="paint25_radial_118_1072" cx="0" cy="0" r="1" gradientUnits="userSpaceOnUse" gradientTransform="translate(92.4408 73.7154) scale(3.70545 4.00317)">
<stop stop-color="white"/>
<stop offset="0.06" stop-color="#DFDFDF"/>
<stop offset="0.16" stop-color="#ABABAB"/>
<stop offset="0.26" stop-color="#7E7E7E"/>
<stop offset="0.37" stop-color="#575757"/>
<stop offset="0.48" stop-color="#373737"/>
<stop offset="0.59" stop-color="#1F1F1F"/>
<stop offset="0.71" stop-color="#0E0E0E"/>
<stop offset="0.84" stop-color="#030303"/>
<stop offset="1"/>
</radialGradient>
<radialGradient id="paint26_radial_118_1072" cx="0" cy="0" r="1" gradientUnits="userSpaceOnUse" gradientTransform="translate(103.281 124.269) scale(4.49434 4.85545)">
<stop stop-color="white"/>
<stop offset="0.06" stop-color="#DFDFDF"/>
<stop offset="0.16" stop-color="#ABABAB"/>
<stop offset="0.26" stop-color="#7E7E7E"/>
<stop offset="0.37" stop-color="#575757"/>
<stop offset="0.48" stop-color="#373737"/>
<stop offset="0.59" stop-color="#1F1F1F"/>
<stop offset="0.71" stop-color="#0E0E0E"/>
<stop offset="0.84" stop-color="#030303"/>
<stop offset="1"/>
</radialGradient>
<radialGradient id="paint27_radial_118_1072" cx="0" cy="0" r="1" gradientUnits="userSpaceOnUse" gradientTransform="translate(301.747 107.647) scale(2.9763 3.21545)">
<stop stop-color="white"/>
<stop offset="0.06" stop-color="#DFDFDF"/>
<stop offset="0.16" stop-color="#ABABAB"/>
<stop offset="0.26" stop-color="#7E7E7E"/>
<stop offset="0.37" stop-color="#575757"/>
<stop offset="0.48" stop-color="#373737"/>
<stop offset="0.59" stop-color="#1F1F1F"/>
<stop offset="0.71" stop-color="#0E0E0E"/>
<stop offset="0.84" stop-color="#030303"/>
<stop offset="1"/>
</radialGradient>
<radialGradient id="paint28_radial_118_1072" cx="0" cy="0" r="1" gradientUnits="userSpaceOnUse" gradientTransform="translate(209.541 117.965) scale(3.9684 4.28726)">
<stop stop-color="white"/>
<stop offset="0.06" stop-color="#DFDFDF"/>
<stop offset="0.16" stop-color="#ABABAB"/>
<stop offset="0.26" stop-color="#7E7E7E"/>
<stop offset="0.37" stop-color="#575757"/>
<stop offset="0.48" stop-color="#373737"/>
<stop offset="0.59" stop-color="#1F1F1F"/>
<stop offset="0.71" stop-color="#0E0E0E"/>
<stop offset="0.84" stop-color="#030303"/>
<stop offset="1"/>
</radialGradient>
<radialGradient id="paint29_radial_118_1072" cx="0" cy="0" r="1" gradientUnits="userSpaceOnUse" gradientTransform="translate(174.041 106.369) scale(4.15965 4.49388)">
<stop stop-color="white"/>
<stop offset="0.06" stop-color="#DFDFDF"/>
<stop offset="0.16" stop-color="#ABABAB"/>
<stop offset="0.26" stop-color="#7E7E7E"/>
<stop offset="0.37" stop-color="#575757"/>
<stop offset="0.48" stop-color="#373737"/>
<stop offset="0.59" stop-color="#1F1F1F"/>
<stop offset="0.71" stop-color="#0E0E0E"/>
<stop offset="0.84" stop-color="#030303"/>
<stop offset="1"/>
</radialGradient>
<radialGradient id="paint30_radial_118_1072" cx="0" cy="0" r="1" gradientUnits="userSpaceOnUse" gradientTransform="translate(142.915 149.863) scale(3.16755 3.42206)">
<stop stop-color="white"/>
<stop offset="0.06" stop-color="#DFDFDF"/>
<stop offset="0.16" stop-color="#ABABAB"/>
<stop offset="0.26" stop-color="#7E7E7E"/>
<stop offset="0.37" stop-color="#575757"/>
<stop offset="0.48" stop-color="#373737"/>
<stop offset="0.59" stop-color="#1F1F1F"/>
<stop offset="0.71" stop-color="#0E0E0E"/>
<stop offset="0.84" stop-color="#030303"/>
<stop offset="1"/>
</radialGradient>
<radialGradient id="paint31_radial_118_1072" cx="0" cy="0" r="1" gradientUnits="userSpaceOnUse" gradientTransform="translate(243.249 218.408) scale(3.9684 4.28728)">
<stop stop-color="white"/>
<stop offset="0.06" stop-color="#DFDFDF"/>
<stop offset="0.16" stop-color="#ABABAB"/>
<stop offset="0.26" stop-color="#7E7E7E"/>
<stop offset="0.37" stop-color="#575757"/>
<stop offset="0.48" stop-color="#373737"/>
<stop offset="0.59" stop-color="#1F1F1F"/>
<stop offset="0.71" stop-color="#0E0E0E"/>
<stop offset="0.84" stop-color="#030303"/>
<stop offset="1"/>
</radialGradient>
<radialGradient id="paint32_radial_118_1072" cx="0" cy="0" r="1" gradientUnits="userSpaceOnUse" gradientTransform="translate(287.272 445.929) scale(5.95262 6.43089)">
<stop stop-color="white"/>
<stop offset="0.06" stop-color="#DFDFDF"/>
<stop offset="0.16" stop-color="#ABABAB"/>
<stop offset="0.26" stop-color="#7E7E7E"/>
<stop offset="0.37" stop-color="#575757"/>
<stop offset="0.48" stop-color="#373737"/>
<stop offset="0.59" stop-color="#1F1F1F"/>
<stop offset="0.71" stop-color="#0E0E0E"/>
<stop offset="0.84" stop-color="#030303"/>
<stop offset="1"/>
</radialGradient>
<radialGradient id="paint33_radial_118_1072" cx="0" cy="0" r="1" gradientUnits="userSpaceOnUse" gradientTransform="translate(355.883 491.775) scale(5.55816 6.00476)">
<stop stop-color="white"/>
<stop offset="0.06" stop-color="#DFDFDF"/>
<stop offset="0.16" stop-color="#ABABAB"/>
<stop offset="0.26" stop-color="#7E7E7E"/>
<stop offset="0.37" stop-color="#575757"/>
<stop offset="0.48" stop-color="#373737"/>
<stop offset="0.59" stop-color="#1F1F1F"/>
<stop offset="0.71" stop-color="#0E0E0E"/>
<stop offset="0.84" stop-color="#030303"/>
<stop offset="1"/>
</radialGradient>
<radialGradient id="paint34_radial_118_1072" cx="0" cy="0" r="1" gradientUnits="userSpaceOnUse" gradientTransform="translate(363.424 432.213) scale(4.36285 4.7134)">
<stop stop-color="white"/>
<stop offset="0.06" stop-color="#DFDFDF"/>
<stop offset="0.16" stop-color="#ABABAB"/>
<stop offset="0.26" stop-color="#7E7E7E"/>
<stop offset="0.37" stop-color="#575757"/>
<stop offset="0.48" stop-color="#373737"/>
<stop offset="0.59" stop-color="#1F1F1F"/>
<stop offset="0.71" stop-color="#0E0E0E"/>
<stop offset="0.84" stop-color="#030303"/>
<stop offset="1"/>
</radialGradient>
<radialGradient id="paint35_radial_118_1072" cx="0" cy="0" r="1" gradientUnits="userSpaceOnUse" gradientTransform="translate(236.113 424.933) scale(3.16755 3.42207)">
<stop stop-color="white"/>
<stop offset="0.06" stop-color="#DFDFDF"/>
<stop offset="0.16" stop-color="#ABABAB"/>
<stop offset="0.26" stop-color="#7E7E7E"/>
<stop offset="0.37" stop-color="#575757"/>
<stop offset="0.48" stop-color="#373737"/>
<stop offset="0.59" stop-color="#1F1F1F"/>
<stop offset="0.71" stop-color="#0E0E0E"/>
<stop offset="0.84" stop-color="#030303"/>
<stop offset="1"/>
</radialGradient>
<radialGradient id="paint36_radial_118_1072" cx="0" cy="0" r="1" gradientUnits="userSpaceOnUse" gradientTransform="translate(167.896 365.8) scale(3.16755 3.42208)">
<stop stop-color="white"/>
<stop offset="0.06" stop-color="#DFDFDF"/>
<stop offset="0.16" stop-color="#ABABAB"/>
<stop offset="0.26" stop-color="#7E7E7E"/>
<stop offset="0.37" stop-color="#575757"/>
<stop offset="0.48" stop-color="#373737"/>
<stop offset="0.59" stop-color="#1F1F1F"/>
<stop offset="0.71" stop-color="#0E0E0E"/>
<stop offset="0.84" stop-color="#030303"/>
<stop offset="1"/>
</radialGradient>
<radialGradient id="paint37_radial_118_1072" cx="0" cy="0" r="1" gradientUnits="userSpaceOnUse" gradientTransform="translate(167.108 321.25) scale(1.58975 1.71749)">
<stop stop-color="white"/>
<stop offset="0.06" stop-color="#DFDFDF"/>
<stop offset="0.16" stop-color="#ABABAB"/>
<stop offset="0.26" stop-color="#7E7E7E"/>
<stop offset="0.37" stop-color="#575757"/>
<stop offset="0.48" stop-color="#373737"/>
<stop offset="0.59" stop-color="#1F1F1F"/>
<stop offset="0.71" stop-color="#0E0E0E"/>
<stop offset="0.84" stop-color="#030303"/>
<stop offset="1"/>
</radialGradient>
<radialGradient id="paint38_radial_118_1072" cx="0" cy="0" r="1" gradientUnits="userSpaceOnUse" gradientTransform="translate(187.333 295.966) scale(1.98421 2.14364)">
<stop stop-color="white"/>
<stop offset="0.06" stop-color="#DFDFDF"/>
<stop offset="0.16" stop-color="#ABABAB"/>
<stop offset="0.26" stop-color="#7E7E7E"/>
<stop offset="0.37" stop-color="#575757"/>
<stop offset="0.48" stop-color="#373737"/>
<stop offset="0.59" stop-color="#1F1F1F"/>
<stop offset="0.71" stop-color="#0E0E0E"/>
<stop offset="0.84" stop-color="#030303"/>
<stop offset="1"/>
</radialGradient>
<radialGradient id="paint39_radial_118_1072" cx="0" cy="0" r="1" gradientUnits="userSpaceOnUse" gradientTransform="translate(167.897 171.569) scale(1.85272 2.00158)">
<stop stop-color="white"/>
<stop offset="0.06" stop-color="#DFDFDF"/>
<stop offset="0.16" stop-color="#ABABAB"/>
<stop offset="0.26" stop-color="#7E7E7E"/>
<stop offset="0.37" stop-color="#575757"/>
<stop offset="0.48" stop-color="#373737"/>
<stop offset="0.59" stop-color="#1F1F1F"/>
<stop offset="0.71" stop-color="#0E0E0E"/>
<stop offset="0.84" stop-color="#030303"/>
<stop offset="1"/>
</radialGradient>
<radialGradient id="paint40_radial_118_1072" cx="0" cy="0" r="1" gradientUnits="userSpaceOnUse" gradientTransform="translate(172.128 194.416) scale(1.85272 2.00159)">
<stop stop-color="white"/>
<stop offset="0.06" stop-color="#DFDFDF"/>
<stop offset="0.16" stop-color="#ABABAB"/>
<stop offset="0.26" stop-color="#7E7E7E"/>
<stop offset="0.37" stop-color="#575757"/>
<stop offset="0.48" stop-color="#373737"/>
<stop offset="0.59" stop-color="#1F1F1F"/>
<stop offset="0.71" stop-color="#0E0E0E"/>
<stop offset="0.84" stop-color="#030303"/>
<stop offset="1"/>
</radialGradient>
<radialGradient id="paint41_radial_118_1072" cx="0" cy="0" r="1" gradientUnits="userSpaceOnUse" gradientTransform="translate(137.225 197.851) scale(2.37865 2.56977)">
<stop stop-color="white"/>
<stop offset="0.06" stop-color="#DFDFDF"/>
<stop offset="0.16" stop-color="#ABABAB"/>
<stop offset="0.26" stop-color="#7E7E7E"/>
<stop offset="0.37" stop-color="#575757"/>
<stop offset="0.48" stop-color="#373737"/>
<stop offset="0.59" stop-color="#1F1F1F"/>
<stop offset="0.71" stop-color="#0E0E0E"/>
<stop offset="0.84" stop-color="#030303"/>
<stop offset="1"/>
</radialGradient>
<radialGradient id="paint42_radial_118_1072" cx="0" cy="0" r="1" gradientUnits="userSpaceOnUse" gradientTransform="translate(240.87 193.277) scale(1.85273 2.00159)">
<stop stop-color="white"/>
<stop offset="0.06" stop-color="#DFDFDF"/>
<stop offset="0.16" stop-color="#ABABAB"/>
<stop offset="0.26" stop-color="#7E7E7E"/>
<stop offset="0.37" stop-color="#575757"/>
<stop offset="0.48" stop-color="#373737"/>
<stop offset="0.59" stop-color="#1F1F1F"/>
<stop offset="0.71" stop-color="#0E0E0E"/>
<stop offset="0.84" stop-color="#030303"/>
<stop offset="1"/>
</radialGradient>
<radialGradient id="paint43_radial_118_1072" cx="0" cy="0" r="1" gradientUnits="userSpaceOnUse" gradientTransform="translate(265.996 263.258) scale(3.70544 4.00318)">
<stop stop-color="white"/>
<stop offset="0.06" stop-color="#DFDFDF"/>
<stop offset="0.16" stop-color="#ABABAB"/>
<stop offset="0.26" stop-color="#7E7E7E"/>
<stop offset="0.37" stop-color="#575757"/>
<stop offset="0.48" stop-color="#373737"/>
<stop offset="0.59" stop-color="#1F1F1F"/>
<stop offset="0.71" stop-color="#0E0E0E"/>
<stop offset="0.84" stop-color="#030303"/>
<stop offset="1"/>
</radialGradient>
<radialGradient id="paint44_radial_118_1072" cx="0" cy="0" r="1" gradientUnits="userSpaceOnUse" gradientTransform="translate(21.3194 175.111) scale(3.44248 3.71908)">
<stop stop-color="white"/>
<stop offset="0.06" stop-color="#DFDFDF"/>
<stop offset="0.16" stop-color="#ABABAB"/>
<stop offset="0.26" stop-color="#7E7E7E"/>
<stop offset="0.37" stop-color="#575757"/>
<stop offset="0.48" stop-color="#373737"/>
<stop offset="0.59" stop-color="#1F1F1F"/>
<stop offset="0.71" stop-color="#0E0E0E"/>
<stop offset="0.84" stop-color="#030303"/>
<stop offset="1"/>
</radialGradient>
<radialGradient id="paint45_radial_118_1072" cx="0" cy="0" r="1" gradientUnits="userSpaceOnUse" gradientTransform="translate(18.4155 213.668) scale(2.64161 2.85387)">
<stop stop-color="white"/>
<stop offset="0.06" stop-color="#DFDFDF"/>
<stop offset="0.16" stop-color="#ABABAB"/>
<stop offset="0.26" stop-color="#7E7E7E"/>
<stop offset="0.37" stop-color="#575757"/>
<stop offset="0.48" stop-color="#373737"/>
<stop offset="0.59" stop-color="#1F1F1F"/>
<stop offset="0.71" stop-color="#0E0E0E"/>
<stop offset="0.84" stop-color="#030303"/>
<stop offset="1"/>
</radialGradient>
<radialGradient id="paint46_radial_118_1072" cx="0" cy="0" r="1" gradientUnits="userSpaceOnUse" gradientTransform="translate(328.127 379.516) scale(2.90459 3.13798)">
<stop stop-color="white"/>
<stop offset="0.06" stop-color="#DFDFDF"/>
<stop offset="0.16" stop-color="#ABABAB"/>
<stop offset="0.26" stop-color="#7E7E7E"/>
<stop offset="0.37" stop-color="#575757"/>
<stop offset="0.48" stop-color="#373737"/>
<stop offset="0.59" stop-color="#1F1F1F"/>
<stop offset="0.71" stop-color="#0E0E0E"/>
<stop offset="0.84" stop-color="#030303"/>
<stop offset="1"/>
</radialGradient>
<radialGradient id="paint47_radial_118_1072" cx="0" cy="0" r="1" gradientUnits="userSpaceOnUse" gradientTransform="translate(328.917 339.239) scale(3.16756 3.42205)">
<stop stop-color="white"/>
<stop offset="0.06" stop-color="#DFDFDF"/>
<stop offset="0.16" stop-color="#ABABAB"/>
<stop offset="0.26" stop-color="#7E7E7E"/>
<stop offset="0.37" stop-color="#575757"/>
<stop offset="0.48" stop-color="#373737"/>
<stop offset="0.59" stop-color="#1F1F1F"/>
<stop offset="0.71" stop-color="#0E0E0E"/>
<stop offset="0.84" stop-color="#030303"/>
<stop offset="1"/>
</radialGradient>
<radialGradient id="paint48_radial_118_1072" cx="0" cy="0" r="1" gradientUnits="userSpaceOnUse" gradientTransform="translate(53.8442 85.71) scale(2.64161 2.85387)">
<stop stop-color="white"/>
<stop offset="0.06" stop-color="#DFDFDF"/>
<stop offset="0.16" stop-color="#ABABAB"/>
<stop offset="0.26" stop-color="#7E7E7E"/>
<stop offset="0.37" stop-color="#575757"/>
<stop offset="0.48" stop-color="#373737"/>
<stop offset="0.59" stop-color="#1F1F1F"/>
<stop offset="0.71" stop-color="#0E0E0E"/>
<stop offset="0.84" stop-color="#030303"/>
<stop offset="1"/>
</radialGradient>
<radialGradient id="paint49_radial_118_1072" cx="0" cy="0" r="1" gradientUnits="userSpaceOnUse" gradientTransform="translate(103.281 124.269) scale(4.49434 4.85545)">
<stop stop-color="white"/>
<stop offset="0.06" stop-color="#DFDFDF"/>
<stop offset="0.16" stop-color="#ABABAB"/>
<stop offset="0.26" stop-color="#7E7E7E"/>
<stop offset="0.37" stop-color="#575757"/>
<stop offset="0.48" stop-color="#373737"/>
<stop offset="0.59" stop-color="#1F1F1F"/>
<stop offset="0.71" stop-color="#0E0E0E"/>
<stop offset="0.84" stop-color="#030303"/>
<stop offset="1"/>
</radialGradient>
<clipPath id="clip0_118_1072">
<rect width="375" height="533" fill="white"/>
</clipPath>
</defs>
</svg>
