<svg width="16" height="16" viewBox="0 0 16 16" fill="none" xmlns="http://www.w3.org/2000/svg">
<path d="M3.99958 2.85709C3.69648 2.85709 3.40579 2.9775 3.19146 3.19183C2.97713 3.40615 2.85672 3.69684 2.85672 3.99995V11.9999C2.85672 12.3031 2.97713 12.5937 3.19146 12.8081C3.40579 13.0224 3.69648 13.1428 3.99958 13.1428H11.9996C12.3027 13.1428 12.5934 13.0224 12.8077 12.8081C13.022 12.5937 13.1424 12.3031 13.1424 11.9999V9.42852C13.1424 9.27697 13.2026 9.13162 13.3098 9.02446C13.417 8.91729 13.5623 8.85709 13.7139 8.85709C13.8654 8.85709 14.0108 8.91729 14.1179 9.02446C14.2251 9.13162 14.2853 9.27697 14.2853 9.42852V11.9999C14.2853 12.6062 14.0445 13.1875 13.6158 13.6162C13.1872 14.0448 12.6058 14.2857 11.9996 14.2857H3.99958C3.39337 14.2857 2.81199 14.0448 2.38334 13.6162C1.95468 13.1875 1.71387 12.6062 1.71387 11.9999V3.99995C1.71387 3.39374 1.95468 2.81236 2.38334 2.3837C2.81199 1.95505 3.39337 1.71423 3.99958 1.71423H6.57101C6.72256 1.71423 6.86791 1.77444 6.97507 1.8816C7.08223 1.98876 7.14244 2.13411 7.14244 2.28566C7.14244 2.43721 7.08223 2.58256 6.97507 2.68972C6.86791 2.79689 6.72256 2.85709 6.57101 2.85709H3.99958ZM8.85672 2.28566C8.85672 2.13411 8.91693 1.98876 9.02409 1.8816C9.13126 1.77444 9.2766 1.71423 9.42815 1.71423H13.7139C13.8654 1.71423 14.0108 1.77444 14.1179 1.8816C14.2251 1.98876 14.2853 2.13411 14.2853 2.28566V6.57138C14.2853 6.72293 14.2251 6.86827 14.1179 6.97544C14.0108 7.0826 13.8654 7.14281 13.7139 7.14281C13.5623 7.14281 13.417 7.0826 13.3098 6.97544C13.2026 6.86827 13.1424 6.72293 13.1424 6.57138V3.66509L9.83215 6.97538C9.77944 7.02995 9.71639 7.07349 9.64667 7.10343C9.57695 7.13338 9.50197 7.14915 9.4261 7.14981C9.35022 7.15047 9.27498 7.13601 9.20475 7.10727C9.13452 7.07854 9.07072 7.03611 9.01707 6.98246C8.96342 6.92881 8.92099 6.86501 8.89226 6.79478C8.86352 6.72455 8.84906 6.64931 8.84972 6.57343C8.85038 6.49756 8.86615 6.42258 8.8961 6.35286C8.92604 6.28314 8.96958 6.22009 9.02415 6.16738L12.3344 2.85709H9.42815C9.2766 2.85709 9.13126 2.79689 9.02409 2.68972C8.91693 2.58256 8.85672 2.43721 8.85672 2.28566Z" fill="#040E3A"/>
</svg>
