<svg width="16" height="21" viewBox="0 0 16 21" fill="none" xmlns="http://www.w3.org/2000/svg">
<g clip-path="url(#clip0_106_3262)">
<path d="M15.3355 4.14538V18.7545C15.3355 19.9054 14.42 20.8384 13.2907 20.8384H2.04475C0.915464 20.8384 0 19.9054 0 18.7545V2.08384C0 0.932968 0.915464 0 2.04475 0H10.907L15.3355 4.14538Z" fill="#F04438"/>
<g filter="url(#filter0_d_106_3262)">
<path d="M15.3357 4.14538H11.4184C11.1361 4.14538 10.9072 3.91213 10.9072 3.6244V0L15.3357 4.14538Z" fill="#FECDCA"/>
</g>
<path d="M10.5373 13.6143C10.0382 13.6143 9.41369 13.7039 9.20938 13.7354C8.36373 12.8262 8.12314 12.3094 8.06902 12.1716C8.14236 11.9776 8.39754 11.2406 8.43379 10.2941C8.45168 9.82014 8.35444 9.46602 8.14471 9.24154C7.93534 9.01743 7.68192 9 7.60925 9C7.35444 9 6.92698 9.13266 6.92698 10.021C6.92698 10.7918 7.27604 11.6097 7.37253 11.8211C6.86416 13.345 6.31838 14.3883 6.20248 14.6028C4.15974 15.3947 4 16.1603 4 16.3773C4 16.7672 4.26973 17 4.72152 17C5.81921 17 6.82091 15.1026 6.98654 14.7732C7.76615 14.4534 8.80962 14.2553 9.07488 14.208C9.83576 14.9542 10.7157 15.1533 11.0812 15.1533C11.3561 15.1533 12 15.1533 12 14.4718C12 13.8388 11.2121 13.6143 10.5373 13.6143ZM10.4844 14.0617C11.0773 14.0617 11.234 14.2636 11.234 14.3703C11.234 14.4373 11.2093 14.6558 10.8915 14.6558C10.6065 14.6558 10.1145 14.4863 9.63037 14.1183C9.83225 14.091 10.131 14.0617 10.4844 14.0617ZM7.57813 9.43372C7.63219 9.43372 7.66778 9.4516 7.69712 9.4935C7.86765 9.73711 7.73015 10.5331 7.5628 11.156C7.40125 10.6219 7.28001 9.80236 7.45059 9.51404C7.48393 9.45776 7.52205 9.43372 7.57813 9.43372ZM7.29018 14.2016C7.50484 13.7552 7.74543 13.1045 7.87648 12.7365C8.13872 13.1884 8.49145 13.608 8.69545 13.8355C8.06027 13.9733 7.5797 14.1111 7.29018 14.2016ZM4.4264 16.4368C4.41226 16.4196 4.41017 16.3832 4.42083 16.3395C4.44318 16.2479 4.61396 15.7939 5.84924 15.225C5.67237 15.5118 5.39585 15.9217 5.09208 16.2279C4.87825 16.4339 4.71174 16.5384 4.59719 16.5384C4.55621 16.5384 4.49974 16.5269 4.4264 16.4368Z" fill="white"/>
</g>
<defs>
<filter id="filter0_d_106_3262" x="4.58131" y="-2.10864" width="12.8633" height="12.5798" filterUnits="userSpaceOnUse" color-interpolation-filters="sRGB">
<feFlood flood-opacity="0" result="BackgroundImageFix"/>
<feColorMatrix in="SourceAlpha" type="matrix" values="0 0 0 0 0 0 0 0 0 0 0 0 0 0 0 0 0 0 127 0" result="hardAlpha"/>
<feOffset dx="-2.10864" dy="2.10864"/>
<feGaussianBlur stdDeviation="2.10864"/>
<feComposite in2="hardAlpha" operator="out"/>
<feColorMatrix type="matrix" values="0 0 0 0 0 0 0 0 0 0 0 0 0 0 0 0 0 0 0.2 0"/>
<feBlend mode="normal" in2="BackgroundImageFix" result="effect1_dropShadow_106_3262"/>
<feBlend mode="normal" in="SourceGraphic" in2="effect1_dropShadow_106_3262" result="shape"/>
</filter>
<clipPath id="clip0_106_3262">
<rect width="16" height="21" fill="white"/>
</clipPath>
</defs>
</svg>
