<svg width="24" height="24" viewBox="0 0 24 24" fill="none" xmlns="http://www.w3.org/2000/svg">
<path d="M3.05957 13C3.30499 15.1939 4.34816 17.221 5.99071 18.696C7.63325 20.1709 9.76059 20.9907 11.9681 20.9994C14.1757 21.0081 16.3094 20.2052 17.9636 18.7434C19.6178 17.2815 20.677 15.2627 20.9398 13.0708C21.2026 10.879 20.6506 8.66696 19.3889 6.85551C18.1271 5.04406 16.2437 3.75952 14.0966 3.24618C11.9496 2.73284 9.68873 3.02652 7.74408 4.07136C5.79944 5.11619 4.30663 6.83931 3.54957 8.913" stroke="#040E3A" stroke-width="2" stroke-linecap="round" stroke-linejoin="round"/>
<path d="M3 4.001V9.001H8M11 12C11 12.2652 11.1054 12.5196 11.2929 12.7071C11.4804 12.8946 11.7348 13 12 13C12.2652 13 12.5196 12.8946 12.7071 12.7071C12.8946 12.5196 13 12.2652 13 12C13 11.7348 12.8946 11.4804 12.7071 11.2929C12.5196 11.1054 12.2652 11 12 11C11.7348 11 11.4804 11.1054 11.2929 11.2929C11.1054 11.4804 11 11.7348 11 12Z" stroke="#040E3A" stroke-width="2" stroke-linecap="round" stroke-linejoin="round"/>
</svg>
