<svg xmlns="http://www.w3.org/2000/svg" height="40px" viewBox="0 -960 960 960" width="40px" fill="#000000"><path d="M489.38-118.67q-135.71 0-236.37-85.51-100.65-85.51-121.57-214.64-2.75-14.69 6.34-26.04t23.51-12.22q13.71-.87 24.54 6.8 10.84 7.66 14.2 21.38 17.82 104.67 98.25 173.66 80.44 68.98 189.69 68.98 122.72 0 207.7-85.74 84.97-85.75 84.97-207.47 0-122.56-84.92-208.42-84.92-85.85-206.16-85.85-70.37 0-131.89 31.03-61.52 31.04-103.54 85.48h74.18q14 0 24.06 10.04 10.07 10.04 10.07 24t-10.07 23.75q-10.06 9.8-24.06 9.8H181.34q-16.41 0-28.01-11.62-11.61-11.61-11.61-28.67v-147.22q0-13.47 9.91-23.47 9.9-9.99 23.66-9.99t23.89 9.99q10.13 10 10.13 23.47v68.59q50.18-64.39 124.36-98.58t156.19-34.19q73.64 0 138.91 28.37 65.28 28.37 114 77.42 48.72 49.06 77.09 115.03 28.37 65.97 28.37 140.63 0 74.65-28.37 140.55-28.37 65.91-77.09 114.92-48.72 49-114 77.37-65.27 28.37-139.39 28.37Zm-1.74-294.56q-27.13 0-46.65-19.66-19.53-19.66-19.53-47.18t19.68-47.24q19.68-19.71 47.22-19.71 26.79 0 46.84 19.85 20.05 19.85 20.05 47.37 0 27.52-20.23 47.04-20.24 19.53-47.38 19.53Z"/></svg>