<svg xmlns="http://www.w3.org/2000/svg" height="40px" viewBox="0 -960 960 960" width="40px" fill="#000000"><path d="M106-779.44q-15.33-16.12-15.33-37.67 0-21.56 15.77-37.22Q122.22-870 143.27-870q21.06 0 37.23 15.91 16.17 15.91 16.17 37.17 0 21.25-16.11 37.42-16.12 16.17-37.67 16.17-21.56 0-36.89-16.11Zm169 0q-15.67-16.12-15.67-37.67 0-21.56 15.91-37.22Q291.15-870 312.41-870t37.42 15.91Q366-838.18 366-816.92q0 21.25-16.11 37.42t-37.67 16.17q-21.55 0-37.22-16.11Zm167.66 0q-15.33-16.12-15.33-37.67 0-21.56 15.44-37.22Q458.21-870 480.11-870q21.89 0 37.56 15.91 15.66 15.91 15.66 37.17 0 21.25-15.78 37.42t-37.68 16.17q-21.89 0-37.21-16.11Zm169 0Q596-795.56 596-817.11q0-21.56 15.7-37.22Q627.39-870 649.03-870t37.64 15.91q16 15.91 16 37.17 0 21.25-16.04 37.42-16.05 16.17-37.68 16.17-21.64 0-37.29-16.11Zm167.84 0q-16.17-16.12-16.17-37.67 0-21.56 16.11-37.22Q795.56-870 817.11-870q21.56 0 37.22 15.91Q870-838.18 870-816.92q0 21.25-15.91 37.42t-37.17 16.17q-21.25 0-37.42-16.11ZM106-611.7q-15.33-15.69-15.33-37.33t15.77-37.64q15.78-16 36.83-16 21.06 0 37.23 16.04 16.17 16.05 16.17 37.68 0 21.64-16.11 37.29Q164.44-596 142.89-596q-21.56 0-36.89-15.7Zm673.5 0q-16.17-15.69-16.17-37.33t16.11-37.64q16.12-16 37.67-16 21.56 0 37.22 16.04Q870-670.58 870-648.95q0 21.64-15.91 37.29Q838.18-596 816.92-596q-21.25 0-37.42-15.7ZM106-442.77q-15.33-15.44-15.33-37.34 0-21.89 15.77-37.56 15.78-15.66 36.83-15.66 21.06 0 37.23 15.78 16.17 15.78 16.17 37.68 0 21.89-16.11 37.21-16.12 15.33-37.67 15.33-21.56 0-36.89-15.44Zm673.5 0q-16.17-15.44-16.17-37.34 0-21.89 16.11-37.56 16.12-15.66 37.67-15.66 21.56 0 37.22 15.78Q870-501.77 870-479.87q0 21.89-15.91 37.21-15.91 15.33-37.17 15.33-21.25 0-37.42-15.44ZM106-275.24q-15.33-15.91-15.33-37.17t15.77-37.42Q122.22-366 143.27-366q21.06 0 37.23 16.11 16.17 16.11 16.17 37.67 0 21.55-16.11 37.22-16.12 15.67-37.67 15.67-21.56 0-36.89-15.91Zm673.5 0q-16.17-15.91-16.17-37.17t16.11-37.42Q795.56-366 817.11-366q21.56 0 37.22 16.11Q870-333.78 870-312.22q0 21.55-15.91 37.22-15.91 15.67-37.17 15.67-21.25 0-37.42-15.91ZM106-106.44q-15.33-15.78-15.33-36.83 0-21.06 15.77-37.23 15.78-16.17 36.83-16.17 21.06 0 37.23 16.11 16.17 16.12 16.17 37.67 0 21.56-16.11 36.89-16.12 15.33-37.67 15.33-21.56 0-36.89-15.77Zm169 0q-15.67-15.78-15.67-36.83 0-21.06 15.91-37.23 15.91-16.17 37.17-16.17t37.42 16.11Q366-164.44 366-142.89q0 21.56-16.11 36.89-16.11 15.33-37.67 15.33-21.55 0-37.22-15.77Zm167.66 0q-15.33-15.78-15.33-36.83 0-21.06 15.44-37.23 15.44-16.17 37.34-16.17 21.89 0 37.56 16.11 15.66 16.12 15.66 37.67 0 21.56-15.78 36.89-15.78 15.33-37.68 15.33-21.89 0-37.21-15.77Zm169 0Q596-122.22 596-143.27q0-21.06 15.7-37.23 15.69-16.17 37.33-16.17t37.64 16.11q16 16.12 16 37.67 0 21.56-16.04 36.89-16.05 15.33-37.68 15.33-21.64 0-37.29-15.77Zm167.84 0q-16.17-15.78-16.17-36.83 0-21.06 16.11-37.23 16.12-16.17 37.67-16.17 21.56 0 37.22 16.11Q870-164.44 870-142.89q0 21.56-15.91 36.89-15.91 15.33-37.17 15.33-21.25 0-37.42-15.77ZM366-259.33q-45.88 0-76.27-30.4-30.4-30.39-30.4-76.27v-230q0-43.81 30.4-75.24 30.39-31.43 76.27-31.43h230q43.81 0 75.24 31.43 31.43 31.43 31.43 75.24v230q0 45.88-31.43 76.27-31.43 30.4-75.24 30.4H366ZM366-366h230v-230H366v230Z"/></svg>