<svg width="24" height="24" viewBox="0 0 24 24" fill="none" xmlns="http://www.w3.org/2000/svg">
<path d="M12.003 21C7.287 21 4.93 21 3.465 19.535C2 18.072 2 15.715 2 11V7.944C2 6.128 2 5.22 2.38 4.538C2.65114 4.05208 3.05208 3.65114 3.538 3.38C4.22 3 5.128 3 6.946 3C8.11 3 8.692 3 9.2 3.191C10.363 3.627 10.843 4.684 11.368 5.733L12.003 7M8.002 7H16.754C18.861 7 19.914 7 20.672 7.506C20.9996 7.72464 21.281 8.00565 21.5 8.333C21.894 8.923 21.98 9.693 22 11M22 18V16.743C22 16.13 22 15.823 21.886 15.547C21.772 15.271 21.555 15.055 21.121 14.621L20.379 13.879C19.945 13.445 19.729 13.229 19.453 13.114C19.177 12.999 18.87 13 18.257 13C16.843 13 15.879 13 15.439 13.44C15 13.878 15 14.585 15 16V18C15 19.414 15 20.121 15.44 20.56C15.879 21 16.586 21 18 21H19C20.414 21 21.121 21 21.56 20.56C22 20.121 22 19.414 22 18Z" stroke="white" stroke-width="1.625" stroke-linecap="round" stroke-linejoin="round"/>
</svg>
