<svg width="12" height="12" viewBox="0 0 12 12" fill="none" xmlns="http://www.w3.org/2000/svg">
<path d="M1.37452 3.0835C1.37452 2.8535 1.54702 2.6665 1.76002 2.6665H3.09252C3.35702 2.659 3.59052 2.4775 3.68052 2.2085L3.69552 2.161L3.75302 1.975C3.78802 1.861 3.81852 1.7615 3.86152 1.6725C4.03052 1.3215 4.34352 1.078 4.70502 1.0155C4.79702 1 4.89352 1 5.00502 1H6.74402C6.85552 1 6.95252 1 7.04402 1.0155C7.40552 1.078 7.71902 1.3215 7.88752 1.6725C7.93052 1.7615 7.96102 1.861 7.99602 1.975L8.05352 2.161L8.06852 2.2085C8.15852 2.4775 8.43852 2.6595 8.70352 2.6665H9.98852C10.202 2.6665 10.3745 2.853 10.3745 3.0835C10.3745 3.314 10.202 3.5 9.98902 3.5H1.75952C1.54652 3.5 1.37452 3.3135 1.37452 3.0835ZM5.80302 11H6.19652C7.55002 11 8.22652 11 8.66702 10.5685C9.10702 10.1365 9.15202 9.4285 9.24202 8.013L9.37202 5.9725C9.42102 5.204 9.44552 4.82 9.22452 4.5765C9.00352 4.333 8.63102 4.333 7.88502 4.333H4.11452C3.36902 4.333 2.99602 4.333 2.77502 4.5765C2.55402 4.82 2.57902 5.204 2.62752 5.9725L2.75752 8.0125C2.84752 9.429 2.89252 10.1365 3.33252 10.5685C3.77252 11.0005 4.44952 11 5.80302 11Z" fill="white"/>
</svg>
