<svg width="18" height="18" viewBox="0 0 18 18" fill="none" xmlns="http://www.w3.org/2000/svg">
<path d="M6.75 9.75C8.40685 9.75 9.75 8.40685 9.75 6.75C9.75 5.09315 8.40685 3.75 6.75 3.75C5.09315 3.75 3.75 5.09315 3.75 6.75C3.75 8.40685 5.09315 9.75 6.75 9.75Z" stroke="#040E3A" stroke-width="1.33333" stroke-linecap="round" stroke-linejoin="round"/>
<path d="M12 14.25C12 11.7645 9.6495 9.75 6.75 9.75C3.8505 9.75 1.5 11.7645 1.5 14.25M11.25 9.75C11.7513 9.74997 12.2446 9.62433 12.6848 9.38455C13.125 9.14477 13.4982 8.7985 13.7701 8.37738C14.042 7.95626 14.2041 7.4737 14.2415 6.97381C14.2789 6.47392 14.1904 5.97262 13.9842 5.51573C13.7779 5.05883 13.4605 4.6609 13.0608 4.35829C12.6612 4.05567 12.1921 3.85803 11.6964 3.78342C11.2007 3.7088 10.6942 3.7596 10.2231 3.93115C9.75213 4.10271 9.3316 4.38956 9 4.7655" stroke="#040E3A" stroke-width="1.33333" stroke-linecap="round" stroke-linejoin="round"/>
<path d="M16.5 14.25C16.5 11.7645 14.1495 9.74998 11.25 9.74998C10.6448 9.74998 9.67275 9.53023 9 8.82373" stroke="#040E3A" stroke-width="1.33333" stroke-linecap="round" stroke-linejoin="round"/>
</svg>
